<?xml version="1.0" encoding="utf-8"?>
<!-- Generator: Adobe Illustrator 16.0.3, SVG Export Plug-In . SVG Version: 6.00 Build 0)  -->
<!DOCTYPE svg PUBLIC "-//W3C//DTD SVG 1.1//EN" "http://www.w3.org/Graphics/SVG/1.1/DTD/svg11.dtd">
<svg version="1.1" id="圖層_1" xmlns="http://www.w3.org/2000/svg" xmlns:xlink="http://www.w3.org/1999/xlink" x="0px" y="0px"
	 width="250px" height="250px" viewBox="55 55 250 250" enable-background="new 55 55 250 250" xml:space="preserve">
<circle fill="#C685D6" cx="180" cy="180" r="125"/>
<g>
	<g>
		<g>
			<defs>
				<circle id="SVGID_1_" cx="180" cy="180" r="125"/>
			</defs>
			<clipPath id="SVGID_2_">
				<use xlink:href="#SVGID_1_"  overflow="visible"/>
			</clipPath>
			<g clip-path="url(#SVGID_2_)">
				<g opacity="0.2">
					<path fill="#596275" d="M259.425,223.558v-95.995c0-4.517-3.662-8.179-8.179-8.179H109.494c-4.517,0-8.18,3.663-8.18,8.179
						v95.995H86.988l0,0c0,7.694,6.237,13.932,13.934,13.932H259.82c7.695,0,13.934-6.237,13.934-13.932l0,0H259.425z"/>
					<path fill="#596275" d="M259.915,224.047v-95.994c0-4.517-3.662-8.179-8.179-8.179H109.985c-4.517,0-8.179,3.663-8.179,8.179
						v95.994H87.478l0,0c0,7.694,6.237,13.934,13.934,13.934h158.897c7.695,0,13.934-6.238,13.934-13.934l0,0H259.915z"/>
					<path fill="#596275" d="M260.407,224.539v-95.995c0-4.517-3.662-8.179-8.18-8.179H110.476c-4.517,0-8.179,3.663-8.179,8.179
						v95.994H87.969l0,0c0,7.695,6.237,13.933,13.934,13.933h158.898c7.694,0,13.933-6.237,13.933-13.933l0,0L260.407,224.539
						L260.407,224.539z"/>
					<path fill="#596275" d="M260.899,225.03v-95.994c0-4.517-3.662-8.179-8.179-8.179H110.968c-4.517,0-8.179,3.663-8.179,8.179
						v95.994H88.461l0,0c0,7.694,6.237,13.933,13.934,13.933h158.898c7.695,0,13.934-6.237,13.934-13.933l0,0H260.899z"/>
					<path fill="#596275" d="M261.391,225.522v-95.995c0-4.517-3.663-8.179-8.18-8.179H111.46c-4.517,0-8.179,3.663-8.179,8.179
						v95.995H88.953l0,0c0,7.694,6.237,13.933,13.934,13.933h158.898c7.695,0,13.934-6.238,13.934-13.933l0,0H261.391z"/>
					<path fill="#596275" d="M261.882,226.014v-95.995c0-4.517-3.662-8.179-8.18-8.179H111.951c-4.517,0-8.18,3.662-8.18,8.179
						v95.995H89.444l0,0c0,7.694,6.237,13.933,13.934,13.933h158.897c7.696,0,13.935-6.238,13.935-13.933l0,0H261.882z"/>
					<path fill="#596275" d="M262.373,226.506V130.51c0-4.517-3.663-8.179-8.179-8.179H112.443c-4.517,0-8.18,3.663-8.18,8.179
						v95.995H89.935l0,0c0,7.693,6.238,13.933,13.934,13.933h158.898c7.695,0,13.934-6.238,13.934-13.933l0,0L262.373,226.506
						L262.373,226.506z"/>
					<path fill="#596275" d="M262.865,226.996v-95.994c0-4.517-3.662-8.18-8.179-8.18H112.934c-4.517,0-8.18,3.663-8.18,8.18v95.994
						H90.427l0,0c0,7.694,6.237,13.932,13.934,13.932h158.898c7.695,0,13.933-6.237,13.933-13.932l0,0H262.865L262.865,226.996z"/>
					<path fill="#596275" d="M263.356,227.488v-95.995c0-4.517-3.662-8.18-8.179-8.18H113.426c-4.517,0-8.18,3.663-8.18,8.18v95.994
						H90.919l0,0c0,7.694,6.237,13.933,13.934,13.933H263.75c7.695,0,13.934-6.237,13.934-13.933l0,0L263.356,227.488
						L263.356,227.488z"/>
					<path fill="#596275" d="M263.848,227.979v-95.995c0-4.517-3.662-8.179-8.179-8.179H113.917c-4.517,0-8.179,3.663-8.179,8.179
						v95.995H91.41l0,0c0,7.694,6.237,13.932,13.934,13.932h158.898c7.695,0,13.934-6.237,13.934-13.932l0,0H263.848
						L263.848,227.979z"/>
					<path fill="#596275" d="M264.339,228.472v-95.995c0-4.517-3.662-8.179-8.179-8.179H114.408c-4.517,0-8.179,3.663-8.179,8.179
						v95.994H91.902l0,0c0,7.694,6.237,13.933,13.934,13.933h158.898c7.695,0,13.933-6.237,13.933-13.933l0,0L264.339,228.472
						L264.339,228.472z"/>
					<path fill="#596275" d="M264.83,228.963v-95.995c0-4.517-3.662-8.179-8.179-8.179H114.9c-4.517,0-8.179,3.662-8.179,8.179
						v95.995H92.393l0,0c0,7.694,6.238,13.932,13.934,13.932h158.897c7.695,0,13.934-6.237,13.934-13.932l0,0H264.83z"/>
					<path fill="#596275" d="M265.323,229.454v-95.995c0-4.517-3.662-8.18-8.179-8.18H115.392c-4.517,0-8.18,3.663-8.18,8.18v95.994
						H92.885l0,0c0,7.694,6.237,13.933,13.934,13.933h158.897c7.695,0,13.933-6.238,13.933-13.933l0,0L265.323,229.454
						L265.323,229.454z"/>
					<path fill="#596275" d="M265.815,229.945v-95.994c0-4.517-3.662-8.179-8.179-8.179H115.884c-4.517,0-8.18,3.662-8.18,8.179
						v95.994H93.376l0,0c0,7.695,6.238,13.933,13.934,13.933h158.899c7.695,0,13.933-6.237,13.933-13.933l0,0H265.815z"/>
					<path fill="#596275" d="M266.305,230.437v-95.994c0-4.517-3.662-8.179-8.179-8.179H116.374c-4.517,0-8.179,3.662-8.179,8.179
						v95.994H93.867l0,0c0,7.694,6.237,13.933,13.933,13.933h158.898c7.695,0,13.934-6.238,13.934-13.933l0,0H266.305
						L266.305,230.437z"/>
					<path fill="#596275" d="M266.797,230.929v-95.995c0-4.517-3.662-8.179-8.179-8.179H116.866c-4.517,0-8.179,3.663-8.179,8.179
						v95.994H94.359l0,0c0,7.694,6.238,13.933,13.934,13.933h158.898c7.695,0,13.934-6.237,13.934-13.933l0,0L266.797,230.929
						L266.797,230.929z"/>
					<path fill="#596275" d="M267.288,231.42v-95.994c0-4.517-3.662-8.179-8.178-8.179H117.358c-4.517,0-8.179,3.663-8.179,8.179
						v95.993H94.851l0,0c0,7.695,6.237,13.934,13.934,13.934h158.898c7.694,0,13.932-6.238,13.932-13.934l0,0L267.288,231.42
						L267.288,231.42z"/>
					<path fill="#596275" d="M267.781,231.912v-95.995c0-4.517-3.662-8.179-8.179-8.179H117.849c-4.517,0-8.179,3.663-8.179,8.179
						v95.995H95.343l0,0c0,7.694,6.238,13.933,13.934,13.933h158.898c7.695,0,13.934-6.237,13.934-13.933l0,0H267.781z"/>
					<path fill="#596275" d="M268.272,232.402v-95.993c0-4.517-3.662-8.179-8.179-8.179H118.341c-4.517,0-8.18,3.663-8.18,8.179
						v95.993H95.834l0,0c0,7.695,6.237,13.934,13.934,13.934h158.897c7.695,0,13.933-6.238,13.933-13.934l0,0H268.272z"/>
					<path fill="#596275" d="M268.763,232.895v-95.994c0-4.517-3.661-8.179-8.179-8.179H118.832c-4.517,0-8.18,3.663-8.18,8.179
						v95.994H96.326l0,0c0,7.694,6.237,13.933,13.933,13.933h158.899c7.694,0,13.933-6.237,13.933-13.933l0,0H268.763z"/>
					<path fill="#596275" d="M269.255,233.386v-95.993c0-4.517-3.662-8.179-8.179-8.179H119.324c-4.517,0-8.18,3.663-8.18,8.179
						v95.993H96.817l0,0c0,7.695,6.237,13.934,13.933,13.934h158.899c7.696,0,13.933-6.238,13.933-13.934l0,0H269.255z"/>
					<path fill="#596275" d="M269.746,233.878v-95.995c0-4.517-3.662-8.179-8.179-8.179H119.816c-4.517,0-8.18,3.663-8.18,8.179
						v95.995H97.308l0,0c0,7.694,6.236,13.933,13.933,13.933H270.14c7.695,0,13.933-6.237,13.933-13.933l0,0H269.746
						L269.746,233.878z"/>
					<path fill="#596275" d="M270.238,234.369v-95.994c0-4.517-3.662-8.18-8.18-8.18H120.306c-4.517,0-8.179,3.663-8.179,8.18
						v95.994H97.8l0,0c0,7.694,6.237,13.932,13.933,13.932h158.899c7.694,0,13.933-6.237,13.933-13.932l0,0H270.238L270.238,234.369
						z"/>
					<path fill="#596275" d="M270.729,234.861v-95.995c0-4.517-3.661-8.179-8.179-8.179H120.798c-4.517,0-8.179,3.663-8.179,8.179
						v95.995H98.292l0,0c0,7.693,6.237,13.932,13.933,13.932h158.898c7.695,0,13.933-6.237,13.933-13.932l0,0H270.729z"/>
					<path fill="#596275" d="M271.221,235.353v-95.994c0-4.517-3.662-8.179-8.18-8.179H121.29c-4.517,0-8.179,3.663-8.179,8.179
						v95.994H98.783l0,0c0,7.694,6.237,13.932,13.933,13.932h158.899c7.694,0,13.933-6.237,13.933-13.932l0,0H271.221z"/>
					<path fill="#596275" d="M271.712,235.844V139.85c0-4.517-3.662-8.18-8.179-8.18H121.781c-4.517,0-8.18,3.663-8.18,8.18v95.994
						H99.275l0,0c0,7.694,6.236,13.933,13.933,13.933h158.899c7.695,0,13.933-6.237,13.933-13.933l0,0H271.712L271.712,235.844z"/>
					<path fill="#596275" d="M272.204,236.335v-95.994c0-4.517-3.664-8.179-8.181-8.179H122.273c-4.517,0-8.18,3.663-8.18,8.179
						v95.994H99.766l0,0c0,7.694,6.236,13.933,13.933,13.933h158.898c7.696,0,13.935-6.238,13.935-13.933l0,0H272.204z"/>
					<path fill="#596275" d="M272.696,236.826v-95.994c0-4.517-3.663-8.179-8.18-8.179H122.765c-4.517,0-8.179,3.663-8.179,8.179
						v95.994h-14.328l0,0c0,7.694,6.236,13.933,13.933,13.933H273.09c7.694,0,13.933-6.238,13.933-13.933l0,0H272.696z"/>
					<path fill="#596275" d="M273.188,237.318v-95.994c0-4.517-3.662-8.18-8.181-8.18H123.256c-4.517,0-8.18,3.663-8.18,8.18v95.994
						h-14.327l0,0c0,7.695,6.237,13.933,13.933,13.933h158.899c7.695,0,13.933-6.237,13.933-13.933l0,0H273.188z"/>
					<path fill="#596275" d="M273.678,237.81v-95.994c0-4.517-3.662-8.18-8.179-8.18H123.747c-4.517,0-8.18,3.663-8.18,8.18v95.994
						H101.24l0,0c0,7.694,6.236,13.933,13.933,13.933h158.899c7.695,0,13.933-6.237,13.933-13.933l0,0H273.678z"/>
					<path fill="#596275" d="M274.17,238.301v-95.994c0-4.517-3.663-8.179-8.18-8.179H124.239c-4.517,0-8.179,3.663-8.179,8.179
						v95.994h-14.327l0,0c0,7.695,6.237,13.933,13.933,13.933h158.898c7.694,0,13.934-6.236,13.934-13.933l0,0H274.17z"/>
					<path fill="#596275" d="M274.661,238.792v-95.993c0-4.517-3.662-8.18-8.179-8.18H124.731c-4.517,0-8.18,3.662-8.18,8.18v95.993
						h-14.328l0,0c0,7.695,6.237,13.934,13.933,13.934h158.9c7.695,0,13.933-6.238,13.933-13.934l0,0H274.661z"/>
					<path fill="#596275" d="M275.154,239.284v-95.994c0-4.517-3.663-8.18-8.181-8.18H125.222c-4.517,0-8.18,3.663-8.18,8.18v95.994
						h-14.327l0,0c0,7.695,6.237,13.933,13.933,13.933h158.898c7.695,0,13.934-6.237,13.934-13.933l0,0H275.154L275.154,239.284z"/>
					<path fill="#596275" d="M275.645,239.775v-95.993c0-4.518-3.663-8.18-8.18-8.18H125.714c-4.518,0-8.18,3.662-8.18,8.18v95.993
						h-14.328l0,0c0,7.694,6.237,13.934,13.933,13.934h158.899c7.694,0,13.933-6.238,13.933-13.934l0,0H275.645z"/>
					<path fill="#596275" d="M276.135,240.268v-95.995c0-4.517-3.662-8.18-8.179-8.18H126.204c-4.517,0-8.179,3.663-8.179,8.18
						v95.995h-14.327l0,0c0,7.693,6.237,13.933,13.933,13.933h158.899c7.694,0,13.933-6.238,13.933-13.933l0,0H276.135
						L276.135,240.268z"/>
					<path fill="#596275" d="M276.627,240.759v-95.994c0-4.517-3.662-8.179-8.179-8.179H126.697c-4.518,0-8.18,3.663-8.18,8.179
						v95.994H104.19l0,0c0,7.694,6.236,13.932,13.933,13.932h158.899c7.694,0,13.933-6.237,13.933-13.932l0,0H276.627z"/>
					<path fill="#596275" d="M277.118,241.25v-95.994c0-4.517-3.662-8.18-8.179-8.18H127.189c-4.518,0-8.18,3.663-8.18,8.18v95.994
						h-14.327l0,0c0,7.694,6.237,13.934,13.933,13.934h158.898c7.695,0,13.934-6.239,13.934-13.934l0,0H277.118z"/>
					<path fill="#596275" d="M277.611,241.742v-95.995c0-4.517-3.663-8.179-8.18-8.179H127.679c-4.518,0-8.18,3.663-8.18,8.179
						v95.995h-14.327l0,0c0,7.694,6.236,13.932,13.933,13.932h158.899c7.693,0,13.933-6.237,13.933-13.932l0,0H277.611z"/>
					<path fill="#596275" d="M278.102,242.233v-95.995c0-4.517-3.662-8.18-8.179-8.18H128.171c-4.517,0-8.18,3.663-8.18,8.18v95.995
						h-14.327l0,0c0,7.694,6.236,13.933,13.932,13.933h158.898c7.695,0,13.934-6.237,13.934-13.933l0,0H278.102z"/>
					<path fill="#596275" d="M278.594,242.726V146.73c0-4.518-3.663-8.179-8.18-8.179H128.663c-4.517,0-8.179,3.662-8.179,8.179
						v95.995h-14.328l0,0c0,7.694,6.237,13.932,13.933,13.932h158.898c7.695,0,13.935-6.237,13.935-13.932l0,0H278.594
						L278.594,242.726z"/>
					<path fill="#596275" d="M279.085,243.216v-95.994c0-4.518-3.663-8.18-8.18-8.18H129.155c-4.517,0-8.179,3.662-8.179,8.18
						v95.994h-14.328l0,0c0,7.694,6.236,13.933,13.933,13.933H279.48c7.694,0,13.933-6.238,13.933-13.933l0,0H279.085z"/>
					<path fill="#596275" d="M279.576,243.707v-95.993c0-4.518-3.662-8.179-8.18-8.179h-141.75c-4.518,0-8.179,3.662-8.179,8.179
						v95.993h-14.329l0,0c0,7.694,6.237,13.934,13.933,13.934h158.897c7.695,0,13.935-6.237,13.935-13.934l0,0H279.576z"/>
					<path fill="#596275" d="M280.068,244.199v-95.995c0-4.517-3.662-8.18-8.179-8.18H130.136c-4.517,0-8.179,3.663-8.179,8.18
						v95.995H107.63l0,0c0,7.694,6.236,13.933,13.932,13.933h158.899c7.694,0,13.934-6.238,13.934-13.933l0,0H280.068z"/>
					<path fill="#596275" d="M280.56,244.69v-95.993c0-4.518-3.663-8.18-8.18-8.18H130.628c-4.517,0-8.179,3.662-8.179,8.18v95.993
						h-14.328l0,0c0,7.694,6.237,13.933,13.933,13.933h158.898c7.695,0,13.934-6.236,13.934-13.933l0,0H280.56z"/>
					<path fill="#596275" d="M281.051,245.183v-95.994c0-4.518-3.662-8.18-8.179-8.18H131.12c-4.517,0-8.179,3.662-8.179,8.18
						v95.994h-14.327l0,0c0,7.694,6.236,13.933,13.932,13.933h158.898c7.695,0,13.935-6.238,13.935-13.933l0,0H281.051z"/>
					<path fill="#596275" d="M281.542,245.674V149.68c0-4.517-3.662-8.179-8.18-8.179H131.612c-4.517,0-8.179,3.662-8.179,8.179
						v95.994h-14.328l0,0c0,7.694,6.236,13.933,13.933,13.933h158.898c7.694,0,13.934-6.238,13.934-13.933l0,0H281.542z"/>
					<path fill="#596275" d="M282.034,246.165v-95.994c0-4.517-3.663-8.18-8.18-8.18H132.103c-4.517,0-8.179,3.662-8.179,8.18
						v95.994h-14.328l0,0c0,7.694,6.237,13.932,13.933,13.932h158.898c7.695,0,13.934-6.237,13.934-13.932l0,0H282.034z"/>
					<path fill="#596275" d="M282.526,246.657v-95.995c0-4.517-3.663-8.179-8.18-8.179H132.595c-4.518,0-8.179,3.663-8.179,8.179
						v95.995h-14.328l0,0c0,7.694,6.237,13.933,13.933,13.933h158.898c7.695,0,13.934-6.238,13.934-13.933l0,0H282.526z"/>
					<path fill="#596275" d="M283.018,247.148v-95.994c0-4.517-3.663-8.179-8.18-8.179H133.086c-4.517,0-8.179,3.662-8.179,8.179
						v95.994h-14.328l0,0c0,7.694,6.237,13.933,13.933,13.933H283.41c7.695,0,13.934-6.238,13.934-13.933l0,0H283.018z"/>
					<path fill="#596275" d="M283.508,247.639v-95.993c0-4.518-3.662-8.18-8.179-8.18H133.577c-4.517,0-8.179,3.663-8.179,8.18
						v95.993h-14.328l0,0c0,7.695,6.237,13.934,13.933,13.934h158.897c7.695,0,13.935-6.238,13.935-13.934l0,0H283.508z"/>
					<path fill="#596275" d="M284,248.132v-95.994c0-4.518-3.663-8.179-8.18-8.179H134.069c-4.517,0-8.179,3.662-8.179,8.179v95.994
						h-14.328l0,0c0,7.694,6.237,13.932,13.933,13.932h158.898c7.694,0,13.934-6.237,13.934-13.932l0,0H284z"/>
					<path fill="#596275" d="M284.491,248.622v-95.993c0-4.517-3.662-8.18-8.179-8.18H134.561c-4.517,0-8.179,3.663-8.179,8.18
						v95.993h-14.328l0,0c0,7.695,6.236,13.934,13.933,13.934h158.898c7.695,0,13.934-6.237,13.934-13.934l0,0H284.491
						L284.491,248.622z"/>
					<path fill="#596275" d="M284.984,249.115V153.12c0-4.517-3.663-8.179-8.18-8.179H135.052c-4.517,0-8.179,3.662-8.179,8.179
						v95.995h-14.328l0,0c0,7.694,6.236,13.932,13.933,13.932h158.898c7.694,0,13.934-6.237,13.934-13.932l0,0H284.984z"/>
					<path fill="#596275" d="M285.475,249.605v-95.994c0-4.517-3.662-8.18-8.18-8.18H135.544c-4.517,0-8.179,3.663-8.179,8.18
						v95.994h-14.329l0,0c0,7.695,6.238,13.933,13.934,13.933h158.898c7.695,0,13.934-6.237,13.934-13.933l0,0H285.475z"/>
					<path fill="#596275" d="M285.966,250.097v-95.993c0-4.518-3.663-8.179-8.18-8.179H136.034c-4.517,0-8.179,3.662-8.179,8.179
						v95.993h-14.328l0,0c0,7.694,6.237,13.934,13.934,13.934H286.36c7.695,0,13.935-6.237,13.935-13.934l0,0H285.966z"/>
					<path fill="#596275" d="M286.457,250.589v-95.994c0-4.518-3.662-8.18-8.179-8.18H136.527c-4.518,0-8.18,3.662-8.18,8.18v95.994
						H114.02l0,0c0,7.694,6.237,13.933,13.934,13.933h158.898c7.695,0,13.934-6.238,13.934-13.933l0,0H286.457z"/>
					<path fill="#596275" d="M286.949,251.08v-95.993c0-4.518-3.663-8.179-8.18-8.179H137.018c-4.517,0-8.179,3.662-8.179,8.179
						v95.993h-14.328l0,0c0,7.694,6.237,13.933,13.933,13.933h158.898c7.695,0,13.934-6.236,13.934-13.933l0,0H286.949
						L286.949,251.08z"/>
					<path fill="#596275" d="M287.441,251.572v-95.995c0-4.517-3.662-8.179-8.18-8.179H137.51c-4.517,0-8.179,3.662-8.179,8.179
						v95.995h-14.328l0,0c0,7.694,6.238,13.933,13.934,13.933h158.898c7.695,0,13.934-6.238,13.934-13.933l0,0H287.441z"/>
					<path fill="#596275" d="M287.932,252.063v-95.994c0-4.517-3.662-8.179-8.179-8.179H138.001c-4.517,0-8.179,3.662-8.179,8.179
						v95.994h-14.328l0,0c0,7.694,6.237,13.933,13.934,13.933h158.898c7.695,0,13.934-6.238,13.934-13.933l0,0H287.932z"/>
					<path fill="#596275" d="M288.424,252.555v-95.994c0-4.517-3.662-8.18-8.18-8.18H138.493c-4.517,0-8.179,3.663-8.179,8.18
						v95.994h-14.328l0,0c0,7.694,6.237,13.933,13.934,13.933h158.898c7.695,0,13.934-6.237,13.934-13.933l0,0H288.424z"/>
					<path fill="#596275" d="M288.915,253.047v-95.994c0-4.517-3.663-8.179-8.18-8.179H138.985c-4.517,0-8.179,3.662-8.179,8.179
						v95.994h-14.328l0,0c0,7.694,6.238,13.933,13.934,13.933H289.31c7.694,0,13.934-6.238,13.934-13.933l0,0H288.915
						L288.915,253.047z"/>
					<path fill="#596275" d="M289.406,253.539v-95.995c0-4.517-3.662-8.18-8.18-8.18H139.476c-4.517,0-8.179,3.663-8.179,8.18
						v95.995h-14.329l0,0c0,7.694,6.237,13.933,13.934,13.933H289.8c7.695,0,13.934-6.238,13.934-13.933l0,0H289.406z"/>
					<path fill="#596275" d="M289.898,254.03v-95.995c0-4.517-3.662-8.179-8.179-8.179H139.967c-4.517,0-8.179,3.663-8.179,8.179
						v95.994H117.46l0,0c0,7.694,6.238,13.933,13.934,13.933h158.898c7.695,0,13.934-6.238,13.934-13.933l0,0L289.898,254.03
						L289.898,254.03z"/>
					<path fill="#596275" d="M290.39,254.521v-95.994c0-4.517-3.662-8.18-8.18-8.18H140.459c-4.517,0-8.179,3.663-8.179,8.18v95.994
						h-14.328l0,0c0,7.694,6.237,13.933,13.934,13.933h158.899c7.694,0,13.933-6.237,13.933-13.933l0,0H290.39z"/>
					<path fill="#596275" d="M290.881,255.014v-95.995c0-4.517-3.662-8.18-8.179-8.18H140.95c-4.517,0-8.179,3.663-8.179,8.18
						v95.993h-14.328l0,0c0,7.695,6.238,13.934,13.934,13.934h158.897c7.695,0,13.934-6.237,13.934-13.934l0,0h-14.327V255.014z"/>
					<path fill="#596275" d="M291.373,255.505v-95.994c0-4.517-3.663-8.18-8.18-8.18H141.442c-4.517,0-8.179,3.663-8.179,8.18
						v95.994h-14.328l0,0c0,7.694,6.238,13.933,13.934,13.933h158.898c7.694,0,13.934-6.238,13.934-13.933l0,0H291.373z"/>
					<path fill="#596275" d="M291.865,255.995v-95.994c0-4.517-3.662-8.179-8.18-8.179H141.933c-4.517,0-8.179,3.662-8.179,8.179
						v95.994h-14.328l0,0c0,7.695,6.238,13.933,13.934,13.933h158.899c7.694,0,13.933-6.237,13.933-13.933l0,0H291.865
						L291.865,255.995z"/>
					<path fill="#596275" d="M292.355,256.488v-95.995c0-4.517-3.662-8.179-8.179-8.179H142.425c-4.517,0-8.18,3.662-8.18,8.179
						v95.993h-14.328l0,0c0,7.694,6.238,13.934,13.934,13.934H292.75c7.694,0,13.934-6.239,13.934-13.934l0,0h-14.329V256.488z"/>
					<path fill="#596275" d="M292.848,256.979v-95.994c0-4.517-3.662-8.179-8.18-8.179H142.917c-4.517,0-8.18,3.662-8.18,8.179
						v95.994h-14.328l0,0c0,7.695,6.238,13.934,13.934,13.934h158.898c7.695,0,13.934-6.237,13.934-13.934l0,0H292.848z"/>
					<path fill="#596275" d="M293.338,257.47v-95.993c0-4.518-3.662-8.179-8.179-8.179H143.407c-4.517,0-8.179,3.662-8.179,8.179
						v95.993h-14.328l0,0c0,7.694,6.238,13.934,13.934,13.934h158.898c7.695,0,13.934-6.239,13.934-13.934l0,0H293.338z"/>
					<path fill="#596275" d="M293.829,257.962v-95.995c0-4.518-3.661-8.179-8.179-8.179H143.899c-4.517,0-8.179,3.662-8.179,8.179
						v95.994h-14.328l0,0c0,7.694,6.237,13.933,13.934,13.933h158.898c7.694,0,13.934-6.237,13.934-13.933l0,0L293.829,257.962
						L293.829,257.962z"/>
					<path fill="#596275" d="M294.322,258.453v-95.994c0-4.518-3.662-8.179-8.179-8.179H144.391c-4.517,0-8.179,3.662-8.179,8.179
						v95.994h-14.328l0,0c0,7.694,6.238,13.933,13.934,13.933h158.898c7.695,0,13.933-6.238,13.933-13.933l0,0H294.322
						L294.322,258.453z"/>
					<path fill="#596275" d="M294.813,258.945v-95.995c0-4.517-3.661-8.179-8.179-8.179H144.883c-4.517,0-8.179,3.663-8.179,8.179
						v95.994h-14.328l0,0c0,7.694,6.237,13.933,13.934,13.933h158.899c7.695,0,13.933-6.238,13.933-13.933l0,0L294.813,258.945
						L294.813,258.945z"/>
					<path fill="#596275" d="M295.305,259.437v-95.994c0-4.517-3.662-8.179-8.179-8.179H145.374c-4.517,0-8.18,3.662-8.18,8.179
						v95.994h-14.327l0,0c0,7.694,6.237,13.933,13.933,13.933h158.898c7.695,0,13.934-6.236,13.934-13.933l0,0H295.305
						L295.305,259.437z"/>
					<path fill="#596275" d="M295.795,259.928v-95.994c0-4.518-3.661-8.18-8.179-8.18H145.865c-4.517,0-8.18,3.663-8.18,8.18v95.994
						h-14.328l0,0c0,7.694,6.238,13.933,13.934,13.933h158.899c7.695,0,13.934-6.237,13.934-13.933l0,0H295.795z"/>
					<path fill="#596275" d="M296.287,260.42v-95.994c0-4.518-3.662-8.18-8.179-8.18H146.357c-4.517,0-8.18,3.663-8.18,8.18v95.994
						H123.85l0,0c0,7.693,6.238,13.933,13.934,13.933h158.898c7.695,0,13.933-6.239,13.933-13.933l0,0H296.287L296.287,260.42z"/>
					<path fill="#596275" d="M296.779,260.911v-95.994c0-4.517-3.661-8.18-8.179-8.18H146.849c-4.517,0-8.18,3.663-8.18,8.18v95.994
						h-14.328l0,0c0,7.694,6.238,13.933,13.934,13.933h158.898c7.695,0,13.934-6.238,13.934-13.933l0,0H296.779L296.779,260.911z"/>
					<path fill="#596275" d="M297.27,261.403v-95.995c0-4.517-3.661-8.179-8.178-8.179H147.34c-4.517,0-8.18,3.662-8.18,8.179
						v95.995h-14.327l0,0c0,7.693,6.237,13.933,13.933,13.933h158.898c7.695,0,13.934-6.239,13.934-13.933l0,0H297.27z"/>
					<path fill="#596275" d="M297.762,261.895v-95.995c0-4.517-3.662-8.179-8.18-8.179H147.831c-4.517,0-8.179,3.663-8.179,8.179
						v95.993h-14.327l0,0c0,7.695,6.237,13.933,13.934,13.933h158.898c7.695,0,13.934-6.237,13.934-13.933l0,0h-14.328V261.895z"/>
					<path fill="#596275" d="M298.253,262.385v-95.993c0-4.517-3.661-8.18-8.179-8.18H148.323c-4.517,0-8.179,3.662-8.179,8.18
						v95.993h-14.328l0,0c0,7.695,6.238,13.933,13.934,13.933h158.899c7.695,0,13.934-6.237,13.934-13.933l0,0H298.253z"/>
					<path fill="#596275" d="M298.744,262.877v-95.994c0-4.517-3.661-8.18-8.179-8.18H148.815c-4.517,0-8.179,3.662-8.179,8.18
						v95.995h-14.327l0,0c0,7.693,6.237,13.932,13.933,13.932H299.14c7.695,0,13.934-6.238,13.934-13.932l0,0L298.744,262.877
						L298.744,262.877z"/>
					<path fill="#596275" d="M299.237,263.368v-95.994c0-4.517-3.661-8.179-8.179-8.179H149.306c-4.517,0-8.179,3.662-8.179,8.179
						v95.994h-14.329l0,0c0,7.694,6.238,13.933,13.934,13.933H299.63c7.695,0,13.934-6.237,13.934-13.933l0,0H299.237
						L299.237,263.368z"/>
					<path fill="#596275" d="M299.728,263.859v-95.994c0-4.517-3.662-8.179-8.179-8.179H149.798c-4.517,0-8.18,3.662-8.18,8.179
						v95.994h-14.328l0,0c0,7.694,6.237,13.933,13.934,13.933h158.898c7.694,0,13.933-6.238,13.933-13.933l0,0H299.728z"/>
					<path fill="#596275" d="M300.219,264.352v-95.994c0-4.517-3.661-8.18-8.179-8.18H150.289c-4.517,0-8.179,3.663-8.179,8.18
						v95.994h-14.328l0,0c0,7.694,6.238,13.933,13.934,13.933h158.898c7.695,0,13.934-6.238,13.934-13.933l0,0H300.219z"/>
					<path fill="#596275" d="M300.711,264.843V168.85c0-4.518-3.662-8.18-8.179-8.18H150.781c-4.518,0-8.18,3.662-8.18,8.18v95.993
						h-14.328l0,0c0,7.694,6.238,13.933,13.934,13.933h158.898c7.695,0,13.934-6.238,13.934-13.933l0,0H300.711z"/>
					<path fill="#596275" d="M301.202,265.335V169.34c0-4.518-3.662-8.179-8.179-8.179H151.272c-4.517,0-8.18,3.662-8.18,8.179
						v95.994h-14.327l0,0c0,7.694,6.237,13.933,13.933,13.933h158.898c7.695,0,13.934-6.237,13.934-13.933l0,0L301.202,265.335
						L301.202,265.335z"/>
					<path fill="#596275" d="M301.695,265.825v-95.993c0-4.518-3.662-8.179-8.179-8.179H151.764c-4.517,0-8.18,3.662-8.18,8.179
						v95.993h-14.328l0,0c0,7.695,6.238,13.934,13.934,13.934h158.899c7.695,0,13.933-6.238,13.933-13.934l0,0H301.695z"/>
					<path fill="#596275" d="M302.186,266.317v-95.994c0-4.517-3.661-8.18-8.179-8.18H152.255c-4.517,0-8.18,3.662-8.18,8.18v95.994
						h-14.327l0,0c0,7.694,6.237,13.933,13.934,13.933H302.58c7.695,0,13.934-6.238,13.934-13.933l0,0H302.186z"/>
					<path fill="#596275" d="M302.678,266.81v-95.994c0-4.517-3.662-8.179-8.18-8.179H152.747c-4.517,0-8.18,3.663-8.18,8.179
						v95.994H130.24l0,0c0,7.694,6.238,13.933,13.934,13.933h158.898c7.695,0,13.933-6.237,13.933-13.933l0,0H302.678
						L302.678,266.81z"/>
					<path fill="#596275" d="M303.169,267.301v-95.994c0-4.518-3.661-8.18-8.18-8.18H153.239c-4.517,0-8.18,3.662-8.18,8.18v95.994
						h-14.328l0,0c0,7.694,6.237,13.932,13.934,13.932h158.899c7.694,0,13.934-6.236,13.934-13.932l0,0H303.169z"/>
					<path fill="#596275" d="M303.66,267.792v-95.993c0-4.518-3.662-8.18-8.179-8.18H153.73c-4.517,0-8.18,3.663-8.18,8.18v95.993
						h-14.328l0,0c0,7.694,6.238,13.932,13.934,13.932h158.898c7.695,0,13.934-6.237,13.934-13.932l0,0H303.66z"/>
					<path fill="#596275" d="M304.153,268.283V172.29c0-4.517-3.662-8.18-8.18-8.18H154.221c-4.517,0-8.179,3.663-8.179,8.18v95.993
						h-14.328l0,0c0,7.695,6.238,13.933,13.934,13.933h158.898c7.695,0,13.933-6.237,13.933-13.933l0,0H304.153z"/>
					<path fill="#596275" d="M304.644,268.775v-95.994c0-4.517-3.662-8.18-8.179-8.18H154.713c-4.517,0-8.179,3.663-8.179,8.18
						v95.994h-14.328l0,0c0,7.694,6.238,13.932,13.934,13.932h158.898c7.695,0,13.933-6.237,13.933-13.932l0,0H304.644z"/>
					<path fill="#596275" d="M305.135,269.267v-95.994c0-4.517-3.662-8.179-8.18-8.179H155.204c-4.517,0-8.179,3.663-8.179,8.179
						v95.994h-14.328l0,0c0,7.694,6.237,13.933,13.933,13.933H305.53c7.695,0,13.932-6.238,13.932-13.933l0,0H305.135z"/>
					<path fill="#596275" d="M305.627,269.758v-95.993c0-4.518-3.662-8.179-8.181-8.179h-141.75c-4.517,0-8.18,3.662-8.18,8.179
						v95.993h-14.327l0,0c0,7.694,6.238,13.933,13.933,13.933h158.899c7.695,0,13.933-6.237,13.933-13.933l0,0H305.627z"/>
					<path fill="#596275" d="M306.118,270.249v-95.993c0-4.518-3.662-8.18-8.18-8.18H156.188c-4.517,0-8.18,3.662-8.18,8.18v95.993
						H133.68l0,0c0,7.694,6.237,13.933,13.933,13.933h158.899c7.695,0,13.933-6.238,13.933-13.933l0,0H306.118z"/>
					<path fill="#596275" d="M306.611,270.741v-95.993c0-4.518-3.662-8.179-8.181-8.179h-141.75c-4.517,0-8.179,3.662-8.179,8.179
						v95.993h-14.328l0,0c0,7.694,6.238,13.933,13.933,13.933h158.899c7.695,0,13.933-6.238,13.933-13.933l0,0H306.611z"/>
					<path fill="#596275" d="M307.101,271.232v-95.994c0-4.517-3.661-8.179-8.179-8.179H157.17c-4.517,0-8.179,3.662-8.179,8.179
						v95.994h-14.328l0,0c0,7.694,6.237,13.933,13.933,13.933h158.9c7.694,0,13.933-6.237,13.933-13.933l0,0H307.101z"/>
					<path fill="#596275" d="M307.592,271.724V175.73c0-4.517-3.661-8.179-8.179-8.179H157.662c-4.517,0-8.179,3.662-8.179,8.179
						v95.993h-14.328l0,0c0,7.694,6.237,13.933,13.933,13.933h158.898c7.695,0,13.934-6.238,13.934-13.933l0,0H307.592z"/>
					<path fill="#596275" d="M308.084,272.216v-95.994c0-4.517-3.661-8.179-8.18-8.179H158.154c-4.517,0-8.179,3.662-8.179,8.179
						v95.994h-14.328l0,0c0,7.694,6.236,13.933,13.932,13.933h158.899c7.695,0,13.933-6.237,13.933-13.933l0,0H308.084
						L308.084,272.216z"/>
					<path fill="#596275" d="M308.575,272.707v-95.993c0-4.517-3.662-8.179-8.179-8.179H158.645c-4.517,0-8.179,3.662-8.179,8.179
						v95.993h-14.328l0,0c0,7.694,6.237,13.933,13.933,13.933H308.97c7.695,0,13.934-6.238,13.934-13.933l0,0H308.575z"/>
					<path fill="#596275" d="M309.068,273.198v-95.993c0-4.518-3.662-8.18-8.18-8.18H159.136c-4.517,0-8.18,3.662-8.18,8.18v95.993
						h-14.328l0,0c0,7.695,6.237,13.934,13.933,13.934h158.899c7.695,0,13.933-6.238,13.933-13.934l0,0H309.068z"/>
					<path fill="#596275" d="M309.559,273.69v-95.994c0-4.518-3.662-8.18-8.18-8.18H159.628c-4.517,0-8.18,3.662-8.18,8.18v95.994
						h-14.328l0,0c0,7.694,6.237,13.933,13.933,13.933h158.899c7.694,0,13.933-6.237,13.933-13.933l0,0H309.559z"/>
					<path fill="#596275" d="M310.05,274.182v-95.993c0-4.518-3.662-8.18-8.18-8.18H160.12c-4.518,0-8.18,3.662-8.18,8.18v95.993
						h-14.328l0,0c0,7.695,6.237,13.934,13.933,13.934h158.899c7.695,0,13.933-6.238,13.933-13.934l0,0H310.05z"/>
					<path fill="#596275" d="M310.542,274.674V178.68c0-4.518-3.662-8.18-8.18-8.18H160.612c-4.518,0-8.18,3.662-8.18,8.18v95.994
						h-14.328l0,0c0,7.694,6.237,13.932,13.934,13.932h158.898c7.695,0,13.934-6.236,13.934-13.932l0,0H310.542z"/>
					<path fill="#596275" d="M311.033,275.165v-95.993c0-4.518-3.662-8.18-8.18-8.18H161.102c-4.517,0-8.179,3.663-8.179,8.18
						v95.993h-14.328l0,0c0,7.694,6.237,13.932,13.933,13.932h158.898c7.694,0,13.934-6.237,13.934-13.932l0,0H311.033z"/>
					<path fill="#596275" d="M311.525,275.655v-95.993c0-4.518-3.662-8.179-8.179-8.179H161.594c-4.518,0-8.179,3.662-8.179,8.179
						v95.993h-14.328l0,0c0,7.695,6.236,13.934,13.932,13.934h158.899c7.696,0,13.933-6.238,13.933-13.934l0,0H311.525z"/>
					<path fill="#596275" d="M312.017,276.148v-95.994c0-4.518-3.662-8.179-8.18-8.179H162.086c-4.518,0-8.179,3.662-8.179,8.179
						v95.994h-14.328l0,0c0,7.694,6.237,13.932,13.933,13.932H312.41c7.695,0,13.934-6.237,13.934-13.932l0,0H312.017z"/>
					<path fill="#596275" d="M312.508,276.64v-95.994c0-4.517-3.662-8.179-8.18-8.179H162.577c-4.518,0-8.179,3.662-8.179,8.179
						v95.994h-14.328l0,0c0,7.694,6.236,13.933,13.932,13.933h158.899c7.695,0,13.933-6.238,13.933-13.933l0,0H312.508z"/>
					<path fill="#596275" d="M312.999,277.131v-95.993c0-4.518-3.662-8.18-8.18-8.18H163.069c-4.518,0-8.18,3.663-8.18,8.18v95.993
						h-14.328l0,0c0,7.693,6.237,13.933,13.933,13.933h158.899c7.695,0,13.933-6.239,13.933-13.933l0,0H312.999z"/>
					<path fill="#596275" d="M313.49,277.622v-95.993c0-4.517-3.662-8.18-8.18-8.18H163.56c-4.518,0-8.18,3.663-8.18,8.18v95.993
						h-14.328l0,0c0,7.694,6.236,13.933,13.933,13.933h158.9c7.693,0,13.932-6.238,13.932-13.933l0,0H313.49z"/>
					<path fill="#596275" d="M313.983,278.113V182.12c0-4.517-3.663-8.179-8.18-8.179H164.052c-4.518,0-8.18,3.663-8.18,8.179
						v95.993h-14.328l0,0c0,7.694,6.237,13.934,13.933,13.934h158.898c7.695,0,13.934-6.239,13.934-13.934l0,0H313.983z"/>
					<path fill="#596275" d="M314.474,278.605v-95.993c0-4.517-3.662-8.18-8.179-8.18H164.543c-4.518,0-8.179,3.663-8.179,8.18
						v95.993h-14.328l0,0c0,7.694,6.236,13.933,13.933,13.933h158.899c7.694,0,13.934-6.238,13.934-13.933l0,0H314.474z"/>
					<path fill="#596275" d="M314.965,279.097v-95.993c0-4.518-3.662-8.18-8.18-8.18H165.034c-4.517,0-8.179,3.662-8.179,8.18
						v95.993h-14.328l0,0c0,7.694,6.237,13.933,13.933,13.933h158.898c7.695,0,13.934-6.238,13.934-13.933l0,0H314.965z"/>
					<path fill="#596275" d="M315.457,279.588v-95.993c0-4.518-3.662-8.18-8.18-8.18H165.526c-4.517,0-8.179,3.662-8.179,8.18
						v95.993h-14.328l0,0c0,7.694,6.237,13.934,13.933,13.934h158.899c7.695,0,13.933-6.238,13.933-13.934l0,0H315.457
						L315.457,279.588z"/>
					<path fill="#596275" d="M315.948,280.08v-95.993c0-4.518-3.662-8.18-8.18-8.18H166.018c-4.518,0-8.18,3.662-8.18,8.18v95.993
						H143.51l0,0c0,7.694,6.237,13.933,13.933,13.933h158.898c7.695,0,13.934-6.238,13.934-13.933l0,0H315.948z"/>
					<path fill="#596275" d="M316.441,280.571v-95.993c0-4.518-3.662-8.18-8.18-8.18H166.509c-4.517,0-8.179,3.662-8.179,8.18
						v95.993h-14.328l0,0c0,7.694,6.237,13.934,13.933,13.934h158.898c7.695,0,13.934-6.239,13.934-13.934l0,0H316.441z"/>
					<path fill="#596275" d="M316.931,281.063v-95.993c0-4.518-3.661-8.18-8.179-8.18H167c-4.517,0-8.179,3.662-8.179,8.18v95.993
						h-14.328l0,0c0,7.694,6.237,13.933,13.933,13.933h158.898c7.695,0,13.934-6.238,13.934-13.933l0,0H316.931z"/>
					<path fill="#596275" d="M317.423,281.555v-95.994c0-4.518-3.662-8.179-8.18-8.179H167.492c-4.517,0-8.179,3.662-8.179,8.179
						v95.994h-14.328l0,0c0,7.694,6.237,13.932,13.933,13.932h158.899c7.694,0,13.934-6.237,13.934-13.932l0,0H317.423z"/>
					<path fill="#596275" d="M317.914,282.045v-95.993c0-4.517-3.662-8.179-8.179-8.179H167.984c-4.517,0-8.179,3.662-8.179,8.179
						v95.993h-14.328l0,0c0,7.695,6.236,13.934,13.933,13.934h158.898c7.695,0,13.934-6.237,13.934-13.934l0,0H317.914
						L317.914,282.045z"/>
					<path fill="#596275" d="M318.406,282.538v-95.994c0-4.518-3.662-8.179-8.181-8.179h-141.75c-4.517,0-8.179,3.662-8.179,8.179
						v95.994h-14.328l0,0c0,7.694,6.237,13.932,13.933,13.932H318.8c7.694,0,13.934-6.237,13.934-13.932l0,0H318.406z"/>
					<path fill="#596275" d="M318.898,283.028v-95.993c0-4.518-3.662-8.18-8.179-8.18H168.967c-4.517,0-8.179,3.662-8.179,8.18
						v95.993H146.46l0,0c0,7.695,6.237,13.933,13.933,13.933h158.898c7.695,0,13.934-6.237,13.934-13.933l0,0H318.898z"/>
					<path fill="#596275" d="M319.389,283.52v-95.993c0-4.517-3.663-8.179-8.18-8.179H169.458c-4.517,0-8.179,3.663-8.179,8.179
						v95.993h-14.328l0,0c0,7.694,6.237,13.934,13.933,13.934h158.899c7.694,0,13.933-6.239,13.933-13.934l0,0H319.389z"/>
					<path fill="#596275" d="M319.881,284.012v-95.993c0-4.518-3.662-8.18-8.18-8.18H169.95c-4.518,0-8.179,3.662-8.179,8.18v95.993
						h-14.328l0,0c0,7.695,6.237,13.933,13.933,13.933h158.897c7.695,0,13.934-6.237,13.934-13.933l0,0H319.881z"/>
					<path fill="#596275" d="M320.372,284.503V188.51c0-4.517-3.662-8.179-8.18-8.179H170.442c-4.517,0-8.179,3.663-8.179,8.179
						v95.993h-14.328l0,0c0,7.694,6.237,13.933,13.933,13.933h158.898c7.696,0,13.935-6.238,13.935-13.933l0,0H320.372z"/>
					<path fill="#596275" d="M320.864,284.994v-95.993c0-4.517-3.662-8.179-8.18-8.179h-141.75c-4.518,0-8.179,3.662-8.179,8.179
						v95.993h-14.328l0,0c0,7.694,6.237,13.933,13.933,13.933h158.898c7.695,0,13.934-6.238,13.934-13.933l0,0H320.864z"/>
					<path fill="#596275" d="M321.355,285.486v-95.993c0-4.518-3.662-8.181-8.179-8.181H171.424c-4.517,0-8.179,3.663-8.179,8.181
						v95.993h-14.328l0,0c0,7.694,6.237,13.933,13.933,13.933h158.899c7.694,0,13.934-6.238,13.934-13.933l0,0H321.355z"/>
					<path fill="#596275" d="M321.847,285.978v-95.993c0-4.518-3.662-8.179-8.18-8.179H171.916c-4.517,0-8.179,3.661-8.179,8.179
						v95.993h-14.328l0,0c0,7.694,6.237,13.933,13.932,13.933H322.24c7.696,0,13.935-6.238,13.935-13.933l0,0H321.847z"/>
					<path fill="#596275" d="M322.338,286.47v-95.993c0-4.519-3.662-8.181-8.18-8.181H172.407c-4.517,0-8.179,3.662-8.179,8.181
						v95.993H149.9l0,0c0,7.694,6.238,13.933,13.934,13.933h158.898c7.695,0,13.934-6.238,13.934-13.933l0,0H322.338z"/>
					<path fill="#596275" d="M322.829,286.961v-95.993c0-4.518-3.662-8.181-8.179-8.181H172.899c-4.517,0-8.179,3.663-8.179,8.181
						v95.993h-14.329l0,0c0,7.694,6.238,13.932,13.934,13.932h158.898c7.695,0,13.934-6.237,13.934-13.932l0,0H322.829z"/>
					<path fill="#596275" d="M323.321,287.452v-95.993c0-4.518-3.662-8.18-8.179-8.18H173.39c-4.517,0-8.179,3.662-8.179,8.18
						v95.993h-14.328l0,0c0,7.694,6.238,13.933,13.934,13.933h158.899c7.695,0,13.933-6.238,13.933-13.933l0,0H323.321z"/>
					<path fill="#596275" d="M323.813,287.944v-95.993c0-4.519-3.662-8.181-8.18-8.181H173.882c-4.517,0-8.179,3.662-8.179,8.181
						v95.993h-14.328l0,0c0,7.694,6.238,13.932,13.934,13.932h158.899c7.695,0,13.934-6.237,13.934-13.932l0,0H323.813z"/>
					<path fill="#596275" d="M324.304,288.436v-95.993c0-4.518-3.662-8.18-8.179-8.18H174.373c-4.517,0-8.179,3.662-8.179,8.18
						v95.993h-14.328l0,0c0,7.694,6.238,13.933,13.934,13.933h158.898c7.695,0,13.935-6.238,13.935-13.933l0,0H324.304z"/>
					<path fill="#596275" d="M324.796,288.926v-95.992c0-4.518-3.662-8.18-8.181-8.18h-141.75c-4.517,0-8.179,3.662-8.179,8.18
						v95.992h-14.328l0,0c0,7.696,6.238,13.934,13.934,13.934H325.19c7.695,0,13.934-6.237,13.934-13.934l0,0H324.796z"/>
					<path fill="#596275" d="M325.287,289.418v-95.992c0-4.518-3.662-8.18-8.18-8.18H175.356c-4.517,0-8.179,3.662-8.179,8.18
						v95.992h-14.329l0,0c0,7.695,6.238,13.934,13.934,13.934H325.68c7.695,0,13.934-6.237,13.934-13.934l0,0H325.287z"/>
					<path fill="#596275" d="M325.779,289.911v-95.994c0-4.518-3.662-8.18-8.18-8.18H175.848c-4.517,0-8.179,3.662-8.179,8.18
						v95.992h-14.329l0,0c0,7.694,6.238,13.934,13.934,13.934h158.898c7.695,0,13.934-6.239,13.934-13.934l0,0h-14.328V289.911z"/>
					<path fill="#596275" d="M326.271,290.401v-95.992c0-4.518-3.662-8.18-8.18-8.18H176.34c-4.517,0-8.18,3.662-8.18,8.18v95.992
						h-14.328l0,0c0,7.695,6.238,13.934,13.934,13.934h158.898c7.695,0,13.934-6.238,13.934-13.934l0,0H326.271z"/>
					<path fill="#596275" d="M326.762,290.893V194.9c0-4.517-3.662-8.18-8.18-8.18H176.831c-4.518,0-8.179,3.663-8.179,8.18v95.992
						h-14.329l0,0c0,7.694,6.238,13.934,13.934,13.934h158.898c7.695,0,13.934-6.239,13.934-13.934l0,0H326.762z"/>
					<path fill="#596275" d="M327.253,291.385v-95.993c0-4.518-3.662-8.179-8.18-8.179H177.322c-4.517,0-8.179,3.661-8.179,8.179
						v95.993h-14.328l0,0c0,7.695,6.238,13.933,13.934,13.933h158.899c7.695,0,13.934-6.237,13.934-13.933l0,0H327.253z"/>
					<path fill="#596275" d="M327.744,291.876v-95.992c0-4.518-3.662-8.18-8.179-8.18H177.815c-4.518,0-8.18,3.662-8.18,8.18v95.992
						h-14.328l0,0c0,7.694,6.238,13.933,13.934,13.933h158.898c7.695,0,13.934-6.238,13.934-13.933l0,0H327.744z"/>
					<path fill="#596275" d="M328.237,292.368v-95.993c0-4.518-3.662-8.179-8.18-8.179H178.305c-4.517,0-8.179,3.661-8.179,8.179
						v95.993h-14.328l0,0c0,7.694,6.238,13.933,13.934,13.933H328.63c7.695,0,13.934-6.238,13.934-13.933l0,0H328.237z"/>
					<path fill="#596275" d="M328.728,292.859v-95.992c0-4.519-3.662-8.181-8.18-8.181H178.797c-4.517,0-8.179,3.661-8.179,8.181
						v95.992H156.29l0,0c0,7.694,6.238,13.933,13.934,13.933h158.898c7.695,0,13.934-6.236,13.934-13.933l0,0H328.728z"/>
					<path fill="#596275" d="M329.219,293.351v-95.993c0-4.517-3.662-8.18-8.18-8.18H179.288c-4.517,0-8.18,3.663-8.18,8.18v95.993
						h-14.328l0,0c0,7.694,6.238,13.933,13.934,13.933h158.898c7.695,0,13.934-6.238,13.934-13.933l0,0H329.219z"/>
					<path fill="#596275" d="M329.71,293.843V197.85c0-4.519-3.662-8.18-8.179-8.18H179.781c-4.517,0-8.18,3.661-8.18,8.18v95.993
						h-14.328l0,0c0,7.694,6.238,13.933,13.934,13.933h158.898c7.695,0,13.934-6.238,13.934-13.933l0,0H329.71z"/>
					<path fill="#596275" d="M330.201,294.334v-95.993c0-4.519-3.661-8.181-8.179-8.181H180.272c-4.517,0-8.18,3.662-8.18,8.181
						v95.993h-14.328l0,0c0,7.694,6.238,13.932,13.934,13.932h158.899c7.695,0,13.934-6.237,13.934-13.932l0,0H330.201
						L330.201,294.334z"/>
					<path fill="#596275" d="M330.693,294.826v-95.993c0-4.519-3.661-8.181-8.178-8.181H180.763c-4.517,0-8.179,3.662-8.179,8.181
						v95.993h-14.328l0,0c0,7.694,6.237,13.933,13.933,13.933h158.898c7.696,0,13.934-6.238,13.934-13.933l0,0H330.693z"/>
					<path fill="#596275" d="M331.184,295.317v-95.993c0-4.519-3.66-8.18-8.178-8.18H181.255c-4.518,0-8.18,3.661-8.18,8.18v95.993
						h-14.328l0,0c0,7.694,6.238,13.932,13.934,13.932h158.898c7.695,0,13.934-6.237,13.934-13.932l0,0H331.184z"/>
					<path fill="#596275" d="M331.676,295.809v-95.993c0-4.518-3.661-8.18-8.179-8.18H181.746c-4.517,0-8.179,3.662-8.179,8.18
						v95.993h-14.328l0,0c0,7.694,6.238,13.933,13.934,13.933h158.898c7.695,0,13.934-6.238,13.934-13.933l0,0H331.676z"/>
					<path fill="#596275" d="M332.167,296.301v-95.994c0-4.518-3.66-8.179-8.179-8.179h-141.75c-4.518,0-8.18,3.661-8.18,8.179
						v95.994h-14.328l0,0c0,7.693,6.237,13.932,13.934,13.932h158.898c7.694,0,13.934-6.238,13.934-13.932l0,0H332.167z"/>
					<path fill="#596275" d="M332.659,296.791v-95.992c0-4.519-3.661-8.18-8.179-8.18H182.729c-4.516,0-8.179,3.661-8.179,8.18
						v95.992h-14.329l0,0c0,7.695,6.238,13.934,13.934,13.934h158.898c7.696,0,13.935-6.238,13.935-13.934l0,0H332.659z"/>
					<path fill="#596275" d="M333.151,297.282v-95.993c0-4.517-3.662-8.179-8.179-8.179H183.221c-4.518,0-8.18,3.662-8.18,8.179
						v95.993h-14.328l0,0c0,7.694,6.238,13.934,13.934,13.934h158.898c7.695,0,13.934-6.239,13.934-13.934l0,0H333.151z"/>
					<path fill="#596275" d="M333.642,297.774v-95.993c0-4.518-3.661-8.18-8.179-8.18H183.712c-4.517,0-8.18,3.662-8.18,8.18v95.993
						h-14.328l0,0c0,7.694,6.238,13.933,13.934,13.933h158.898c7.695,0,13.934-6.238,13.934-13.933l0,0H333.642z"/>
					<path fill="#596275" d="M334.134,298.266v-95.993c0-4.517-3.662-8.179-8.179-8.179H184.204c-4.518,0-8.18,3.662-8.18,8.179
						v95.993h-14.328l0,0c0,7.694,6.238,13.934,13.934,13.934h158.898c7.695,0,13.934-6.239,13.934-13.934l0,0H334.134z"/>
					<path fill="#596275" d="M334.625,298.758v-95.994c0-4.517-3.661-8.18-8.179-8.18H184.696c-4.517,0-8.18,3.663-8.18,8.18v95.993
						h-14.328l0,0c0,7.693,6.238,13.933,13.934,13.933H335.02c7.696,0,13.935-6.239,13.935-13.933l0,0L334.625,298.758
						L334.625,298.758z"/>
					<path fill="#596275" d="M335.117,299.249v-95.995c0-4.516-3.662-8.178-8.18-8.178H185.187c-4.518,0-8.179,3.662-8.179,8.178
						v95.995h-14.329l0,0c0,7.693,6.238,13.933,13.934,13.933h158.898c7.695,0,13.933-6.238,13.933-13.933l0,0H335.117
						L335.117,299.249z"/>
					<path fill="#596275" d="M335.608,299.74v-95.993c0-4.517-3.66-8.179-8.179-8.179h-141.75c-4.518,0-8.18,3.662-8.18,8.179
						v95.993h-14.328l0,0c0,7.694,6.238,13.933,13.934,13.933h158.898c7.695,0,13.934-6.238,13.934-13.933l0,0H335.608z"/>
					<path fill="#596275" d="M336.101,300.231v-95.992c0-4.519-3.662-8.181-8.18-8.181H186.17c-4.518,0-8.179,3.662-8.179,8.181
						v95.992h-14.329l0,0c0,7.694,6.238,13.932,13.934,13.932h158.898c7.695,0,13.933-6.237,13.933-13.932l0,0H336.101
						L336.101,300.231z"/>
					<path fill="#596275" d="M336.591,300.724V204.73c0-4.519-3.661-8.18-8.179-8.18H186.661c-4.517,0-8.18,3.661-8.18,8.18v95.993
						h-14.328l0,0c0,7.694,6.238,13.933,13.934,13.933h158.898c7.695,0,13.934-6.237,13.934-13.933l0,0H336.591z"/>
					<path fill="#596275" d="M337.082,301.215v-95.994c0-4.517-3.661-8.179-8.179-8.179H187.153c-4.517,0-8.179,3.662-8.179,8.179
						v95.994h-14.328l0,0c0,7.694,6.238,13.932,13.934,13.932h158.898c7.695,0,13.934-6.237,13.934-13.932l0,0H337.082z"/>
					<path fill="#596275" d="M337.574,301.707v-95.995c0-4.517-3.661-8.179-8.179-8.179H187.645c-4.518,0-8.18,3.662-8.18,8.179
						v95.994h-14.328l0,0c0,7.694,6.238,13.933,13.934,13.933h158.898c7.695,0,13.933-6.237,13.933-13.933l0,0L337.574,301.707
						L337.574,301.707z"/>
					<path fill="#596275" d="M338.066,302.198v-95.994c0-4.517-3.661-8.179-8.178-8.179H188.136c-4.517,0-8.179,3.662-8.179,8.179
						v95.994h-14.328l0,0c0,7.694,6.238,13.932,13.934,13.932h158.898c7.695,0,13.933-6.237,13.933-13.932l0,0H338.066z"/>
					<path fill="#596275" d="M338.557,302.689v-95.992c0-4.519-3.661-8.181-8.178-8.181H188.628c-4.518,0-8.18,3.662-8.18,8.181
						v95.992H166.12l0,0c0,7.694,6.238,13.933,13.934,13.933h158.898c7.695,0,13.934-6.238,13.934-13.933l0,0H338.557z"/>
					<path fill="#596275" d="M339.049,303.181v-95.993c0-4.518-3.661-8.18-8.179-8.18H189.119c-4.518,0-8.18,3.662-8.18,8.18v95.993
						h-14.329l0,0c0,7.695,6.238,13.933,13.934,13.933h158.897c7.695,0,13.934-6.237,13.934-13.933l0,0H339.049z"/>
					<path fill="#596275" d="M339.54,303.672v-95.993c0-4.517-3.66-8.179-8.178-8.179H189.611c-4.518,0-8.18,3.662-8.18,8.179
						v95.993h-14.328l0,0c0,7.694,6.238,13.933,13.934,13.933h158.898c7.695,0,13.933-6.238,13.933-13.933l0,0H339.54z"/>
					<path fill="#596275" d="M340.032,304.164v-95.993c0-4.518-3.661-8.179-8.179-8.179H190.102c-4.517,0-8.179,3.661-8.179,8.179
						v95.993h-14.328l0,0c0,7.695,6.238,13.933,13.934,13.933h158.898c7.695,0,13.934-6.237,13.934-13.933l0,0H340.032z"/>
					<path fill="#596275" d="M340.524,304.655v-95.993c0-4.517-3.661-8.18-8.179-8.18H190.594c-4.518,0-8.18,3.663-8.18,8.18v95.993
						h-14.328l0,0c0,7.694,6.238,13.933,13.934,13.933h158.898c7.694,0,13.933-6.238,13.933-13.933l0,0H340.524z"/>
					<path fill="#596275" d="M341.015,305.146v-95.993c0-4.517-3.66-8.18-8.178-8.18H191.085c-4.518,0-8.18,3.663-8.18,8.18v95.992
						h-14.328l0,0c0,7.694,6.238,13.934,13.934,13.934h158.897c7.696,0,13.934-6.239,13.934-13.934l0,0L341.015,305.146
						L341.015,305.146z"/>
					<path fill="#596275" d="M341.507,305.639v-95.993c0-4.518-3.661-8.18-8.179-8.18H191.576c-4.517,0-8.18,3.662-8.18,8.18v95.993
						H169.07l0,0c0,7.694,6.238,13.933,13.933,13.933h158.898c7.695,0,13.933-6.238,13.933-13.933l0,0H341.507z"/>
					<path fill="#596275" d="M341.998,306.13v-95.993c0-4.517-3.66-8.18-8.178-8.18H192.069c-4.518,0-8.18,3.663-8.18,8.18v95.992
						H169.56l0,0c0,7.694,6.238,13.934,13.933,13.934h158.899c7.695,0,13.933-6.239,13.933-13.934l0,0L341.998,306.13
						L341.998,306.13z"/>
					<path fill="#596275" d="M342.49,306.621v-95.992c0-4.518-3.662-8.18-8.18-8.18H192.56c-4.518,0-8.18,3.662-8.18,8.18v95.992
						h-14.328l0,0c0,7.695,6.237,13.934,13.934,13.934h158.898c7.695,0,13.933-6.238,13.933-13.934l0,0H342.49z"/>
					<path fill="#596275" d="M342.982,307.113V211.12c0-4.517-3.661-8.18-8.18-8.18H193.051c-4.517,0-8.18,3.663-8.18,8.18v95.993
						h-14.328l0,0c0,7.694,6.238,13.933,13.934,13.933h158.899c7.694,0,13.933-6.237,13.933-13.933l0,0H342.982z"/>
					<path fill="#596275" d="M343.473,307.604v-95.992c0-4.519-3.661-8.18-8.179-8.18H193.542c-4.517,0-8.179,3.661-8.179,8.18
						v95.992h-14.328l0,0c0,7.694,6.239,13.934,13.934,13.934h158.898c7.696,0,13.933-6.239,13.933-13.934l0,0H343.473z"/>
					<path fill="#596275" d="M343.965,308.097v-95.993c0-4.519-3.661-8.18-8.18-8.18H194.034c-4.517,0-8.18,3.661-8.18,8.18v95.993
						h-14.328l0,0c0,7.694,6.237,13.933,13.932,13.933h158.899c7.695,0,13.934-6.237,13.934-13.933l0,0H343.965z"/>
					<path fill="#596275" d="M344.456,308.588v-95.994c0-4.517-3.662-8.179-8.179-8.179H194.526c-4.517,0-8.179,3.662-8.179,8.179
						v95.994h-14.329l0,0c0,7.694,6.237,13.932,13.933,13.932H344.85c7.695,0,13.934-6.237,13.934-13.932l0,0H344.456z"/>
					<path fill="#596275" d="M344.948,309.078v-95.993c0-4.517-3.661-8.179-8.179-8.179H195.018c-4.519,0-8.181,3.662-8.181,8.179
						v95.993H172.51l0,0c0,7.695,6.237,13.934,13.933,13.934h158.899c7.695,0,13.933-6.238,13.933-13.934l0,0H344.948z"/>
					<path fill="#596275" d="M345.44,309.571v-95.994c0-4.518-3.662-8.18-8.181-8.18h-141.75c-4.517,0-8.18,3.662-8.18,8.18v95.994
						h-14.328l0,0c0,7.694,6.238,13.932,13.933,13.932h158.899c7.694,0,13.933-6.237,13.933-13.932l0,0H345.44z"/>
					<path fill="#596275" d="M345.931,310.062V214.07c0-4.519-3.661-8.181-8.179-8.181H196c-4.518,0-8.18,3.662-8.18,8.181v95.991
						h-14.327l0,0c0,7.694,6.237,13.934,13.933,13.934h158.899c7.695,0,13.933-6.239,13.933-13.934l0,0H345.931z"/>
					<path fill="#596275" d="M346.423,310.555v-95.994c0-4.518-3.662-8.18-8.181-8.18h-141.75c-4.518,0-8.18,3.662-8.18,8.18v95.994
						h-14.329l0,0c0,7.694,6.237,13.932,13.933,13.932h158.898c7.695,0,13.934-6.237,13.934-13.932l0,0H346.423z"/>
					<path fill="#596275" d="M346.913,311.045v-95.993c0-4.517-3.662-8.179-8.179-8.179H196.984c-4.518,0-8.18,3.662-8.18,8.179
						v95.993h-14.328l0,0c0,7.694,6.237,13.933,13.933,13.933h158.899c7.694,0,13.933-6.238,13.933-13.933l0,0H346.913z"/>
					<path fill="#596275" d="M347.406,311.536v-95.992c0-4.518-3.662-8.18-8.18-8.18H197.475c-4.518,0-8.18,3.662-8.18,8.18v95.992
						h-14.328l0,0c0,7.695,6.237,13.934,13.932,13.934h158.899c7.695,0,13.933-6.238,13.933-13.934l0,0H347.406z"/>
					<path fill="#596275" d="M347.897,312.028v-95.993c0-4.518-3.662-8.18-8.18-8.18H197.966c-4.517,0-8.179,3.662-8.179,8.18
						v95.993h-14.328l0,0c0,7.694,6.238,13.933,13.933,13.933h158.9c7.694,0,13.932-6.238,13.932-13.933l0,0H347.897z"/>
					<path fill="#596275" d="M348.388,312.52v-95.993c0-4.517-3.662-8.179-8.179-8.179H198.458c-4.518,0-8.18,3.662-8.18,8.179
						v95.993H175.95l0,0c0,7.694,6.237,13.933,13.933,13.933h158.899c7.694,0,13.933-6.238,13.933-13.933l0,0H348.388z"/>
					<path fill="#596275" d="M348.88,313.011v-95.992c0-4.518-3.662-8.18-8.18-8.18H198.949c-4.518,0-8.18,3.662-8.18,8.18v95.992
						h-14.328l0,0c0,7.695,6.237,13.934,13.934,13.934h158.898c7.695,0,13.933-6.238,13.933-13.934l0,0H348.88z"/>
					<path fill="#596275" d="M349.371,313.503V217.51c0-4.518-3.662-8.181-8.18-8.181h-141.75c-4.519,0-8.18,3.663-8.18,8.181
						v95.993h-14.329l0,0c0,7.694,6.238,13.933,13.933,13.933h158.899c7.693,0,13.933-6.238,13.933-13.933l0,0H349.371z"/>
					<path fill="#596275" d="M349.863,313.994V218c0-4.517-3.661-8.178-8.18-8.178H199.934c-4.519,0-8.181,3.661-8.181,8.178v95.994
						h-14.327l0,0c0,7.694,6.236,13.934,13.933,13.934h158.899c7.695,0,13.932-6.239,13.932-13.934l0,0H349.863z"/>
					<path fill="#596275" d="M350.354,314.485v-95.992c0-4.519-3.661-8.181-8.179-8.181H200.424c-4.518,0-8.18,3.662-8.18,8.181
						v95.992h-14.328l0,0c0,7.694,6.237,13.934,13.933,13.934h158.899c7.694,0,13.934-6.239,13.934-13.934l0,0H350.354z"/>
					<path fill="#596275" d="M350.846,314.978v-95.994c0-4.517-3.662-8.179-8.18-8.179H200.915c-4.518,0-8.179,3.662-8.179,8.179
						v95.994h-14.329l0,0c0,7.694,6.237,13.932,13.933,13.932H351.24c7.694,0,13.934-6.237,13.934-13.932l0,0H350.846z"/>
					<path fill="#596275" d="M351.337,315.469v-95.992c0-4.519-3.661-8.181-8.179-8.181H201.407c-4.519,0-8.181,3.662-8.181,8.181
						v95.992H178.9l0,0c0,7.694,6.237,13.934,13.934,13.934h158.898c7.695,0,13.934-6.239,13.934-13.934l0,0H351.337z"/>
					<path fill="#596275" d="M351.829,315.961v-95.994c0-4.517-3.662-8.18-8.181-8.18H201.9c-4.518,0-8.18,3.663-8.18,8.18v95.994
						h-14.328l0,0c0,7.694,6.238,13.932,13.934,13.932h158.899c7.693,0,13.933-6.237,13.933-13.932l0,0H351.829z"/>
					<path fill="#596275" d="M352.321,316.451v-95.993c0-4.517-3.662-8.179-8.179-8.179H202.391c-4.519,0-8.181,3.662-8.181,8.179
						v95.993h-14.328l0,0c0,7.695,6.237,13.933,13.934,13.933h158.897c7.696,0,13.934-6.237,13.934-13.933l0,0H352.321z"/>
					<path fill="#596275" d="M352.812,316.942V220.95c0-4.518-3.661-8.18-8.18-8.18h-141.75c-4.519,0-8.18,3.662-8.18,8.18v95.992
						h-14.329l0,0c0,7.694,6.237,13.934,13.933,13.934h158.898c7.695,0,13.934-6.239,13.934-13.934l0,0H352.812z"/>
					<path fill="#596275" d="M353.303,317.435v-95.993c0-4.518-3.661-8.179-8.179-8.179H203.373c-4.518,0-8.18,3.661-8.18,8.179
						v95.993h-14.328l0,0c0,7.694,6.237,13.933,13.933,13.933h158.898c7.695,0,13.934-6.238,13.934-13.933l0,0H353.303z"/>
					<path fill="#596275" d="M353.795,317.926v-95.992c0-4.518-3.661-8.18-8.18-8.18h-141.75c-4.519,0-8.18,3.662-8.18,8.18v95.992
						h-14.329l0,0c0,7.694,6.237,13.934,13.933,13.934h158.899c7.695,0,13.934-6.239,13.934-13.934l0,0H353.795z"/>
					<path fill="#596275" d="M354.286,318.418v-95.993c0-4.518-3.662-8.18-8.18-8.18H204.356c-4.517,0-8.179,3.662-8.179,8.18
						v95.993h-14.328l0,0c0,7.693,6.238,13.933,13.933,13.933h158.9c7.693,0,13.933-6.238,13.933-13.933l0,0H354.286z"/>
					<path fill="#596275" d="M354.778,318.909v-95.993c0-4.517-3.661-8.179-8.179-8.179H204.848c-4.518,0-8.179,3.662-8.179,8.179
						v95.993h-14.328l0,0c0,7.694,6.236,13.933,13.933,13.933h158.898c7.695,0,13.934-6.238,13.934-13.933l0,0H354.778z"/>
					<path fill="#596275" d="M355.27,319.4v-95.993c0-4.517-3.662-8.179-8.18-8.179H205.339c-4.517,0-8.179,3.662-8.179,8.179V319.4
						h-14.328l0,0c0,7.694,6.237,13.933,13.933,13.933h158.898c7.695,0,13.934-6.238,13.934-13.933l0,0H355.27z"/>
					<path fill="#596275" d="M355.761,319.893v-95.993c0-4.518-3.662-8.181-8.18-8.181h-141.75c-4.518,0-8.179,3.663-8.179,8.181
						v95.993h-14.329l0,0c0,7.694,6.237,13.933,13.934,13.933h158.898c7.694,0,13.934-6.238,13.934-13.933l0,0H355.761z"/>
					<path fill="#596275" d="M356.253,320.384v-95.993c0-4.517-3.662-8.179-8.18-8.179H206.323c-4.518,0-8.18,3.662-8.18,8.179
						v95.993h-14.328l0,0c0,7.694,6.237,13.933,13.934,13.933h158.897c7.696,0,13.934-6.238,13.934-13.933l0,0H356.253z"/>
					<path fill="#596275" d="M356.743,320.875v-95.992c0-4.519-3.661-8.181-8.179-8.181H206.814c-4.518,0-8.178,3.662-8.178,8.181
						v95.992h-14.33l0,0c0,7.694,6.237,13.933,13.933,13.933h158.898c7.695,0,13.935-6.238,13.935-13.933l0,0H356.743z"/>
					<path fill="#596275" d="M357.236,321.367v-95.994c0-4.517-3.661-8.178-8.18-8.178H207.305c-4.517,0-8.179,3.661-8.179,8.178
						v95.994h-14.328l0,0c0,7.694,6.237,13.932,13.934,13.932h158.897c7.695,0,13.934-6.237,13.934-13.932l0,0H357.236z"/>
					<path fill="#596275" d="M357.727,321.857v-95.992c0-4.518-3.661-8.18-8.179-8.18H207.797c-4.518,0-8.179,3.662-8.179,8.18
						v95.992H185.29l0,0c0,7.695,6.236,13.934,13.932,13.934h158.899c7.695,0,13.934-6.238,13.934-13.934l0,0H357.727z"/>
					<path fill="#596275" d="M358.219,322.351v-95.994c0-4.517-3.662-8.18-8.18-8.18H208.288c-4.517,0-8.179,3.663-8.179,8.18
						v95.994h-14.328l0,0c0,7.694,6.237,13.932,13.934,13.932h158.897c7.695,0,13.934-6.237,13.934-13.932l0,0H358.219z"/>
					<path fill="#596275" d="M358.71,322.841v-95.992c0-4.518-3.662-8.18-8.18-8.18h-141.75c-4.519,0-8.18,3.662-8.18,8.18v95.992
						h-14.328l0,0c0,7.695,6.237,13.934,13.933,13.934h158.899c7.695,0,13.933-6.238,13.933-13.934l0,0H358.71z"/>
					<path fill="#596275" d="M359.201,323.332V227.34c0-4.518-3.661-8.18-8.18-8.18h-141.75c-4.517,0-8.179,3.662-8.179,8.18v95.992
						h-14.329l0,0c0,7.696,6.238,13.934,13.934,13.934h158.898c7.694,0,13.934-6.237,13.934-13.934l0,0H359.201z"/>
					<path fill="#596275" d="M359.694,323.824v-95.993c0-4.518-3.662-8.179-8.18-8.179H209.763c-4.518,0-8.179,3.661-8.179,8.179
						v95.993h-14.329l0,0c0,7.695,6.238,13.933,13.934,13.933h158.898c7.695,0,13.934-6.237,13.934-13.933l0,0H359.694z"/>
					<path fill="#596275" d="M360.184,324.315v-95.992c0-4.518-3.66-8.18-8.179-8.18h-141.75c-4.518,0-8.18,3.662-8.18,8.18v95.992
						h-14.328l0,0c0,7.694,6.237,13.934,13.933,13.934h158.898c7.695,0,13.935-6.239,13.935-13.934l0,0H360.184z"/>
					<path fill="#596275" d="M360.676,324.808v-95.993c0-4.518-3.662-8.179-8.18-8.179H210.745c-4.517,0-8.178,3.661-8.178,8.179
						v95.993h-14.329l0,0c0,7.693,6.238,13.933,13.934,13.933h158.898c7.695,0,13.934-6.239,13.934-13.933l0,0H360.676z"/>
					<path fill="#596275" d="M361.167,325.299v-95.992c0-4.518-3.661-8.18-8.179-8.18H211.238c-4.518,0-8.179,3.662-8.179,8.18
						v95.992H188.73l0,0c0,7.694,6.237,13.933,13.934,13.933h158.898c7.695,0,13.935-6.238,13.935-13.933l0,0H361.167z"/>
					<path fill="#596275" d="M361.659,325.79v-95.992c0-4.518-3.662-8.18-8.18-8.18H211.729c-4.517,0-8.179,3.662-8.179,8.18v95.992
						h-14.329l0,0c0,7.694,6.238,13.933,13.934,13.933h158.898c7.695,0,13.934-6.238,13.934-13.933l0,0H361.659z"/>
					<path fill="#596275" d="M362.151,326.282v-95.993c0-4.518-3.661-8.179-8.179-8.179H212.221c-4.518,0-8.179,3.661-8.179,8.179
						v95.993h-14.329l0,0c0,7.694,6.237,13.933,13.934,13.933h158.898c7.695,0,13.934-6.238,13.934-13.933l0,0H362.151z"/>
					<path fill="#596275" d="M362.642,326.773V230.78c0-4.517-3.661-8.179-8.179-8.179H212.712c-4.517,0-8.179,3.662-8.179,8.179
						v95.993h-14.329l0,0c0,7.694,6.237,13.933,13.934,13.933h158.898c7.695,0,13.934-6.238,13.934-13.933l0,0H362.642
						L362.642,326.773z"/>
					<path fill="#596275" d="M363.134,327.266v-95.993c0-4.518-3.662-8.179-8.18-8.179H213.203c-4.517,0-8.179,3.661-8.179,8.179
						v95.993h-14.328l0,0c0,7.694,6.237,13.933,13.933,13.933h158.899c7.694,0,13.934-6.238,13.934-13.933l0,0H363.134z"/>
					<path fill="#596275" d="M363.625,327.757v-95.993c0-4.517-3.661-8.179-8.18-8.179H213.695c-4.517,0-8.179,3.662-8.179,8.179
						v95.993h-14.328l0,0c0,7.694,6.237,13.933,13.934,13.933h158.897c7.695,0,13.934-6.238,13.934-13.933l0,0H363.625z"/>
					<path fill="#596275" d="M364.116,328.249v-95.993c0-4.519-3.661-8.181-8.179-8.181H214.187c-4.518,0-8.179,3.662-8.179,8.181
						v95.992h-14.329l0,0c0,7.694,6.238,13.933,13.934,13.933h158.898c7.695,0,13.934-6.238,13.934-13.933l0,0L364.116,328.249
						L364.116,328.249z"/>
					<path fill="#596275" d="M364.609,328.74v-95.993c0-4.517-3.662-8.179-8.181-8.179h-141.75c-4.517,0-8.179,3.662-8.179,8.179
						v95.993H192.17l0,0c0,7.694,6.238,13.933,13.935,13.933h158.897c7.695,0,13.934-6.238,13.934-13.933l0,0H364.609z"/>
					<path fill="#596275" d="M365.1,329.23v-95.992c0-4.518-3.662-8.18-8.179-8.18H215.17c-4.518,0-8.18,3.662-8.18,8.18v95.992
						h-14.329l0,0c0,7.695,6.238,13.934,13.934,13.934h158.899c7.695,0,13.934-6.238,13.934-13.934l0,0H365.1L365.1,329.23z"/>
					<path fill="#596275" d="M365.591,329.724v-95.994c0-4.518-3.661-8.18-8.18-8.18h-141.75c-4.518,0-8.179,3.662-8.179,8.18
						v95.992h-14.329l0,0c0,7.696,6.238,13.934,13.934,13.934h158.898c7.695,0,13.934-6.237,13.934-13.934l0,0h-14.328V329.724z"/>
					<path fill="#596275" d="M366.083,330.214v-95.992c0-4.518-3.662-8.18-8.18-8.18H216.153c-4.518,0-8.179,3.662-8.179,8.18
						v95.992h-14.329l0,0c0,7.695,6.238,13.934,13.934,13.934h158.898c7.695,0,13.934-6.238,13.934-13.934l0,0H366.083
						L366.083,330.214z"/>
					<path fill="#596275" d="M366.573,330.707v-95.994c0-4.518-3.66-8.18-8.179-8.18h-141.75c-4.518,0-8.179,3.662-8.179,8.18
						v95.992h-14.329l0,0c0,7.694,6.237,13.934,13.933,13.934h158.899c7.694,0,13.934-6.239,13.934-13.934l0,0h-14.329V330.707z"/>
					<path fill="#596275" d="M367.067,331.197v-95.993c0-4.518-3.662-8.18-8.18-8.18H217.136c-4.518,0-8.18,3.662-8.18,8.18v95.992
						h-14.328l0,0c0,7.694,6.238,13.934,13.934,13.934H367.46c7.694,0,13.934-6.239,13.934-13.934l0,0L367.067,331.197
						L367.067,331.197z"/>
					<path fill="#596275" d="M367.557,331.688v-95.992c0-4.518-3.661-8.18-8.179-8.18h-141.75c-4.519,0-8.181,3.662-8.181,8.18
						v95.992h-14.328l0,0c0,7.694,6.237,13.933,13.934,13.933h158.898c7.695,0,13.935-6.238,13.935-13.933l0,0H367.557
						L367.557,331.688z"/>
					<path fill="#596275" d="M368.048,332.181v-95.993c0-4.518-3.661-8.18-8.179-8.18H218.118c-4.517,0-8.179,3.662-8.179,8.18
						v95.993h-14.329l0,0c0,7.694,6.238,13.933,13.934,13.933h158.898c7.695,0,13.934-6.238,13.934-13.933l0,0H368.048z"/>
					<path fill="#596275" d="M368.54,332.672V236.68c0-4.518-3.661-8.18-8.179-8.18H218.611c-4.518,0-8.18,3.662-8.18,8.18v95.992
						h-14.328l0,0c0,7.694,6.237,13.933,13.934,13.933h158.898c7.695,0,13.934-6.238,13.934-13.933l0,0H368.54L368.54,332.672z"/>
					<path fill="#596275" d="M369.031,333.164v-95.993c0-4.518-3.66-8.18-8.178-8.18H219.102c-4.517,0-8.18,3.662-8.18,8.18v95.992
						h-14.328l0,0c0,7.694,6.238,13.933,13.934,13.933h158.898c7.695,0,13.934-6.238,13.934-13.933l0,0L369.031,333.164
						L369.031,333.164z"/>
					<path fill="#596275" d="M369.524,333.655v-95.993c0-4.519-3.662-8.181-8.18-8.181H219.593c-4.517,0-8.179,3.662-8.179,8.181
						v95.992h-14.328l0,0c0,7.695,6.237,13.932,13.933,13.932h158.899c7.694,0,13.934-6.236,13.934-13.932l0,0L369.524,333.655
						L369.524,333.655z"/>
					<path fill="#596275" d="M370.014,334.146v-95.993c0-4.517-3.66-8.18-8.179-8.18h-141.75c-4.517,0-8.18,3.663-8.18,8.18v95.993
						h-14.328l0,0c0,7.693,6.237,13.932,13.934,13.932h158.898c7.694,0,13.933-6.238,13.933-13.932l0,0H370.014L370.014,334.146z"/>
					<path fill="#596275" d="M370.506,334.639v-95.993c0-4.519-3.661-8.181-8.179-8.181H220.576c-4.518,0-8.18,3.662-8.18,8.181
						v95.992h-14.328l0,0c0,7.694,6.238,13.932,13.934,13.932h158.898c7.695,0,13.934-6.237,13.934-13.932l0,0L370.506,334.639
						L370.506,334.639z"/>
					<path fill="#596275" d="M370.997,335.13v-95.993c0-4.517-3.661-8.179-8.179-8.179H221.068c-4.517,0-8.179,3.662-8.179,8.179
						v95.993h-14.328l0,0c0,7.694,6.237,13.932,13.933,13.932h158.898c7.695,0,13.934-6.237,13.934-13.932l0,0H370.997
						L370.997,335.13z"/>
					<path fill="#596275" d="M371.489,335.621v-95.992c0-4.519-3.661-8.181-8.178-8.181H221.56c-4.518,0-8.18,3.662-8.18,8.181
						v95.992h-14.329l0,0c0,7.694,6.239,13.934,13.934,13.934h158.899c7.695,0,13.934-6.239,13.934-13.934l0,0H371.489z"/>
					<path fill="#596275" d="M371.981,336.113v-95.994c0-4.518-3.661-8.18-8.18-8.18h-141.75c-4.517,0-8.18,3.662-8.18,8.18v95.992
						h-14.328l0,0c0,7.695,6.238,13.933,13.934,13.933h158.898c7.695,0,13.934-6.237,13.934-13.933l0,0h-14.328V336.113z"/>
					<path fill="#596275" d="M372.472,336.604V240.61c0-4.518-3.661-8.179-8.179-8.179H222.542c-4.517,0-8.179,3.661-8.179,8.179
						v95.993h-14.329l0,0c0,7.695,6.238,13.935,13.934,13.935h158.898c7.695,0,13.933-6.239,13.933-13.935l0,0H372.472z"/>
					<path fill="#596275" d="M372.963,337.095v-95.992c0-4.518-3.66-8.18-8.179-8.18h-141.75c-4.518,0-8.18,3.662-8.18,8.18v95.992
						h-14.328l0,0c0,7.695,6.237,13.934,13.934,13.934h158.898c7.694,0,13.933-6.238,13.933-13.934l0,0H372.963z"/>
					<path fill="#596275" d="M373.455,337.587v-95.993c0-4.517-3.661-8.179-8.18-8.179h-141.75c-4.518,0-8.18,3.662-8.18,8.179
						v95.993h-14.328l0,0c0,7.694,6.238,13.933,13.934,13.933H373.85c7.695,0,13.933-6.238,13.933-13.933l0,0H373.455
						L373.455,337.587z"/>
					<path fill="#596275" d="M373.947,338.078v-95.993c0-4.517-3.661-8.179-8.179-8.179h-141.75c-4.518,0-8.181,3.662-8.181,8.179
						v95.993h-14.328l0,0c0,7.694,6.237,13.933,13.934,13.933h158.899c7.694,0,13.933-6.238,13.933-13.933l0,0H373.947
						L373.947,338.078z"/>
					<path fill="#596275" d="M374.438,338.57v-95.993c0-4.518-3.66-8.18-8.179-8.18H224.508c-4.517,0-8.179,3.662-8.179,8.18v95.992
						H202l0,0c0,7.694,6.238,13.933,13.935,13.933h158.898c7.694,0,13.933-6.238,13.933-13.933l0,0L374.438,338.57L374.438,338.57z"
						/>
					<path fill="#596275" d="M374.93,339.062v-95.993c0-4.518-3.661-8.18-8.179-8.18H225c-4.518,0-8.18,3.662-8.18,8.18v95.992
						h-14.328l0,0c0,7.695,6.237,13.934,13.934,13.934h158.898c7.695,0,13.933-6.238,13.933-13.934l0,0L374.93,339.062
						L374.93,339.062z"/>
					<path fill="#596275" d="M375.421,339.553V243.56c0-4.517-3.661-8.179-8.179-8.179H225.491c-4.517,0-8.179,3.662-8.179,8.179
						v95.992h-14.329l0,0c0,7.695,6.238,13.934,13.934,13.934h158.898c7.695,0,13.934-6.238,13.934-13.934l0,0L375.421,339.553
						L375.421,339.553z"/>
					<path fill="#596275" d="M375.913,340.044v-95.992c0-4.519-3.662-8.181-8.18-8.181H225.983c-4.517,0-8.179,3.662-8.179,8.181
						v95.992h-14.329l0,0c0,7.695,6.238,13.934,13.934,13.934h158.899c7.695,0,13.933-6.238,13.933-13.934l0,0H375.913
						L375.913,340.044z"/>
					<path fill="#596275" d="M376.405,340.536v-95.993c0-4.517-3.661-8.18-8.178-8.18H226.475c-4.518,0-8.18,3.663-8.18,8.18v95.992
						h-14.328l0,0c0,7.695,6.238,13.934,13.934,13.934h158.898c7.695,0,13.933-6.238,13.933-13.934l0,0L376.405,340.536
						L376.405,340.536z"/>
					<path fill="#596275" d="M376.897,341.027v-95.992c0-4.519-3.661-8.181-8.18-8.181H226.966c-4.518,0-8.18,3.662-8.18,8.181
						v95.992h-14.328l0,0c0,7.695,6.238,13.934,13.934,13.934H377.29c7.695,0,13.934-6.238,13.934-13.934l0,0H376.897z"/>
					<path fill="#596275" d="M377.388,341.52v-95.993c0-4.519-3.661-8.18-8.179-8.18H227.458c-4.518,0-8.18,3.661-8.18,8.18v95.992
						H204.95l0,0c0,7.695,6.237,13.933,13.934,13.933h158.897c7.695,0,13.934-6.237,13.934-13.933l0,0L377.388,341.52
						L377.388,341.52z"/>
					<path fill="#596275" d="M377.879,342.011v-95.992c0-4.519-3.66-8.18-8.179-8.18H227.95c-4.518,0-8.18,3.661-8.18,8.18v95.992
						h-14.329l0,0c0,7.694,6.238,13.934,13.934,13.934h158.899c7.694,0,13.933-6.239,13.933-13.934l0,0H377.879L377.879,342.011z"/>
					<path fill="#596275" d="M378.371,342.502V246.51c0-4.519-3.661-8.181-8.18-8.181H228.441c-4.517,0-8.179,3.662-8.179,8.181
						v95.991h-14.329l0,0c0,7.696,6.238,13.934,13.933,13.934h158.899c7.695,0,13.934-6.237,13.934-13.934l0,0L378.371,342.502
						L378.371,342.502z"/>
					<path fill="#596275" d="M378.863,342.994V247c0-4.517-3.661-8.179-8.179-8.179H228.932c-4.517,0-8.179,3.662-8.179,8.179
						v95.993h-14.329l0,0c0,7.693,6.238,13.933,13.934,13.933h158.899c7.695,0,13.933-6.239,13.933-13.933l0,0L378.863,342.994
						L378.863,342.994z"/>
					<path fill="#596275" d="M379.354,343.485v-95.993c0-4.518-3.66-8.18-8.18-8.18h-141.75c-4.518,0-8.18,3.662-8.18,8.18v95.992
						h-14.328l0,0c0,7.695,6.237,13.933,13.933,13.933h158.899c7.695,0,13.933-6.237,13.933-13.933l0,0L379.354,343.485
						L379.354,343.485z"/>
					<path fill="#596275" d="M379.846,343.977v-95.993c0-4.518-3.662-8.18-8.181-8.18H229.916c-4.518,0-8.18,3.662-8.18,8.18v95.993
						h-14.328l0,0c0,7.693,6.237,13.933,13.934,13.933H380.24c7.695,0,13.933-6.239,13.933-13.933l0,0H379.846L379.846,343.977z"/>
					<path fill="#596275" d="M380.336,344.468v-95.993c0-4.517-3.66-8.179-8.179-8.179h-141.75c-4.518,0-8.18,3.662-8.18,8.179
						v95.993h-14.329l0,0c0,7.693,6.237,13.933,13.933,13.933h158.899c7.695,0,13.934-6.239,13.934-13.933l0,0H380.336
						L380.336,344.468z"/>
					<path fill="#596275" d="M380.829,344.96v-95.993c0-4.518-3.662-8.179-8.181-8.179H230.898c-4.517,0-8.179,3.661-8.179,8.179
						v95.993h-14.328l0,0c0,7.693,6.236,13.933,13.933,13.933h158.898c7.696,0,13.934-6.239,13.934-13.933l0,0H380.829z"/>
					<path fill="#596275" d="M381.32,345.451v-95.992c0-4.518-3.66-8.179-8.179-8.179H231.39c-4.518,0-8.18,3.661-8.18,8.179v95.992
						h-14.328l0,0c0,7.694,6.237,13.933,13.933,13.933h158.899c7.695,0,13.933-6.238,13.933-13.933l0,0H381.32z"/>
					<path fill="#596275" d="M381.812,345.942V249.95c0-4.518-3.661-8.18-8.18-8.18H231.881c-4.517,0-8.179,3.662-8.179,8.18v95.993
						h-14.329l0,0c0,7.695,6.237,13.933,13.933,13.933h158.899c7.695,0,13.934-6.237,13.934-13.933l0,0L381.812,345.942
						L381.812,345.942z"/>
					<path fill="#596275" d="M382.303,346.435v-95.992c0-4.518-3.661-8.18-8.18-8.18H232.374c-4.518,0-8.18,3.662-8.18,8.18v95.992
						h-14.328l0,0c0,7.694,6.237,13.933,13.933,13.933h158.898c7.695,0,13.934-6.238,13.934-13.933l0,0H382.303L382.303,346.435z"/>
					<path fill="#596275" d="M382.794,346.926v-95.992c0-4.518-3.661-8.18-8.18-8.18H232.865c-4.518,0-8.18,3.662-8.18,8.18v95.992
						h-14.329l0,0c0,7.694,6.238,13.934,13.934,13.934H383.19c7.695,0,13.933-6.239,13.933-13.934l0,0H382.794L382.794,346.926z"/>
					<path fill="#596275" d="M383.286,347.417v-95.992c0-4.517-3.661-8.181-8.18-8.181H233.356c-4.517,0-8.18,3.664-8.18,8.181
						v95.992h-14.328l0,0c0,7.694,6.238,13.934,13.934,13.934h158.899c7.694,0,13.933-6.239,13.933-13.934l0,0H383.286z"/>
					<path fill="#596275" d="M383.778,347.909v-95.992c0-4.518-3.661-8.18-8.18-8.18h-141.75c-4.518,0-8.18,3.662-8.18,8.18v95.992
						H211.34l0,0c0,7.694,6.236,13.933,13.933,13.933h158.899c7.694,0,13.933-6.238,13.933-13.933l0,0H383.778z"/>
					<path fill="#596275" d="M384.27,348.4v-95.992c0-4.519-3.661-8.181-8.18-8.181H234.339c-4.518,0-8.18,3.662-8.18,8.181V348.4
						h-14.328l0,0c0,7.694,6.237,13.934,13.933,13.934h158.899c7.695,0,13.933-6.239,13.933-13.934l0,0H384.27L384.27,348.4z"/>
					<path fill="#596275" d="M384.76,348.891v-95.991c0-4.519-3.66-8.179-8.179-8.179H234.83c-4.517,0-8.179,3.66-8.179,8.179
						v95.991h-14.328l0,0c0,7.696,6.236,13.934,13.932,13.934h158.899c7.695,0,13.934-6.237,13.934-13.934l0,0H384.76
						L384.76,348.891z"/>
					<path fill="#596275" d="M385.252,349.384v-95.992c0-4.519-3.661-8.181-8.18-8.181H235.322c-4.517,0-8.179,3.662-8.179,8.181
						v95.992h-14.329l0,0c0,7.694,6.237,13.934,13.934,13.934h158.898c7.695,0,13.934-6.239,13.934-13.934l0,0H385.252
						L385.252,349.384z"/>
					<path fill="#596275" d="M385.743,349.874v-95.991c0-4.519-3.661-8.181-8.179-8.181H235.814c-4.518,0-8.18,3.662-8.18,8.181
						v95.991h-14.328l0,0c0,7.695,6.237,13.934,13.933,13.934h158.899c7.695,0,13.933-6.238,13.933-13.934l0,0H385.743z"/>
					<path fill="#596275" d="M386.236,350.367v-95.994c0-4.517-3.662-8.179-8.18-8.179H236.305c-4.517,0-8.179,3.662-8.179,8.179
						v95.994h-14.329l0,0c0,7.694,6.237,13.932,13.934,13.932h158.898c7.695,0,13.934-6.237,13.934-13.932l0,0H386.236z"/>
					<path fill="#596275" d="M386.727,350.857v-95.992c0-4.518-3.661-8.18-8.18-8.18h-141.75c-4.517,0-8.179,3.662-8.179,8.18
						v95.992h-14.329l0,0c0,7.695,6.237,13.934,13.933,13.934h158.899c7.695,0,13.934-6.238,13.934-13.934l0,0H386.727
						L386.727,350.857z"/>
					<path fill="#596275" d="M387.218,351.349v-95.992c0-4.518-3.661-8.18-8.18-8.18H237.287c-4.517,0-8.179,3.662-8.179,8.18
						v95.992h-14.328l0,0c0,7.694,6.237,13.934,13.933,13.934h158.899c7.694,0,13.933-6.239,13.933-13.934l0,0H387.218z"/>
					<path fill="#596275" d="M387.709,351.841v-95.992c0-4.518-3.661-8.18-8.179-8.18H237.78c-4.518,0-8.18,3.662-8.18,8.18v95.992
						h-14.328l0,0c0,7.694,6.238,13.934,13.933,13.934h158.9c7.694,0,13.933-6.239,13.933-13.934l0,0H387.709z"/>
					<path fill="#596275" d="M388.2,352.332V256.34c0-4.518-3.66-8.18-8.179-8.18H238.271c-4.517,0-8.179,3.662-8.179,8.18v95.992
						h-14.328l0,0c0,7.694,6.237,13.934,13.932,13.934h158.899c7.695,0,13.934-6.239,13.934-13.934l0,0H388.2z"/>
					<path fill="#596275" d="M388.693,352.824v-95.993c0-4.518-3.661-8.179-8.18-8.179H238.764c-4.519,0-8.18,3.661-8.18,8.179
						v95.993h-14.329l0,0c0,7.694,6.237,13.933,13.934,13.933h158.899c7.694,0,13.933-6.238,13.933-13.933l0,0H388.693z"/>
					<path fill="#596275" d="M389.184,353.315v-95.992c0-4.518-3.66-8.18-8.179-8.18H239.254c-4.518,0-8.179,3.662-8.179,8.18
						v95.992h-14.329l0,0c0,7.694,6.237,13.934,13.933,13.934h158.899c7.695,0,13.933-6.239,13.933-13.934l0,0H389.184
						L389.184,353.315z"/>
					<path fill="#596275" d="M389.676,353.807v-95.992c0-4.518-3.662-8.18-8.18-8.18H239.745c-4.518,0-8.179,3.662-8.179,8.18
						v95.992h-14.329l0,0c0,7.694,6.238,13.934,13.934,13.934H390.07c7.694,0,13.934-6.239,13.934-13.934l0,0H389.676z"/>
					<path fill="#596275" d="M390.167,354.299v-95.992c0-4.519-3.661-8.18-8.18-8.18h-141.75c-4.519,0-8.18,3.661-8.18,8.18v95.992
						H217.73l0,0c0,7.694,6.237,13.933,13.933,13.933h158.9c7.693,0,13.933-6.238,13.933-13.933l0,0H390.167z"/>
					<path fill="#596275" d="M390.658,354.79v-95.992c0-4.519-3.661-8.181-8.179-8.181H240.729c-4.518,0-8.18,3.662-8.18,8.181
						v95.992h-14.328l0,0c0,7.695,6.237,13.934,13.933,13.934h158.899c7.694,0,13.933-6.238,13.933-13.934l0,0H390.658
						L390.658,354.79z"/>
					<path fill="#596275" d="M391.15,355.282v-95.993c0-4.518-3.66-8.179-8.179-8.179h-141.75c-4.519,0-8.18,3.661-8.18,8.179
						v95.993h-14.329l0,0c0,7.694,6.237,13.933,13.934,13.933h158.898c7.695,0,13.934-6.238,13.934-13.933l0,0H391.15z"/>
					<path fill="#596275" d="M391.642,355.773V259.78c0-4.518-3.661-8.18-8.18-8.18H241.711c-4.517,0-8.179,3.662-8.179,8.181
						v95.992h-14.328l0,0c0,7.694,6.237,13.934,13.933,13.934h158.898c7.696,0,13.935-6.239,13.935-13.934l0,0H391.642
						L391.642,355.773z"/>
					<path fill="#596275" d="M392.133,356.264v-95.991c0-4.518-3.661-8.181-8.179-8.181H242.203c-4.517,0-8.179,3.663-8.179,8.181
						v95.991h-14.328l0,0c0,7.695,6.236,13.934,13.933,13.934h158.898c7.695,0,13.934-6.238,13.934-13.934l0,0H392.133z"/>
					<path fill="#596275" d="M392.625,356.757v-95.993c0-4.518-3.662-8.18-8.181-8.18h-141.75c-4.517,0-8.179,3.662-8.179,8.18
						v95.993h-14.328l0,0c0,7.694,6.237,13.932,13.933,13.932h158.898c7.695,0,13.934-6.237,13.934-13.932l0,0H392.625z"/>
					<path fill="#596275" d="M393.116,357.247v-95.991c0-4.519-3.661-8.181-8.179-8.181H243.187c-4.518,0-8.179,3.662-8.179,8.181
						v95.991h-14.329l0,0c0,7.695,6.237,13.934,13.933,13.934h158.899c7.695,0,13.934-6.238,13.934-13.934l0,0H393.116
						L393.116,357.247z"/>
					<path fill="#596275" d="M393.608,357.738v-95.992c0-4.517-3.661-8.179-8.18-8.179h-141.75c-4.517,0-8.179,3.662-8.179,8.179
						v95.992H221.17l0,0c0,7.694,6.238,13.934,13.934,13.934h158.898c7.695,0,13.934-6.239,13.934-13.934l0,0H393.608
						L393.608,357.738z"/>
					<path fill="#596275" d="M394.1,358.23v-95.992c0-4.518-3.662-8.18-8.18-8.18H244.169c-4.517,0-8.179,3.662-8.179,8.18v95.992
						h-14.328l0,0c0,7.695,6.237,13.933,13.933,13.933h158.899c7.695,0,13.933-6.237,13.933-13.933l0,0H394.1z"/>
					<path fill="#596275" d="M394.591,358.722v-95.992c0-4.518-3.661-8.18-8.18-8.18H244.66c-4.517,0-8.178,3.662-8.178,8.18v95.992
						h-14.329l0,0c0,7.694,6.237,13.934,13.933,13.934h158.899c7.694,0,13.934-6.239,13.934-13.934l0,0H394.591z"/>
					<path fill="#596275" d="M395.082,359.213v-95.991c0-4.519-3.661-8.18-8.179-8.18H245.153c-4.518,0-8.179,3.661-8.179,8.18
						v95.992h-14.328l0,0c0,7.694,6.237,13.934,13.932,13.934h158.899c7.695,0,13.934-6.239,13.934-13.934l0,0L395.082,359.213
						L395.082,359.213z"/>
					<path fill="#596275" d="M395.573,359.705v-95.992c0-4.518-3.66-8.18-8.179-8.18H245.644c-4.517,0-8.179,3.662-8.179,8.18
						v95.992h-14.328l0,0c0,7.694,6.237,13.934,13.933,13.934h158.898c7.695,0,13.934-6.239,13.934-13.934l0,0H395.573
						L395.573,359.705z"/>
					<path fill="#596275" d="M396.066,360.196v-95.992c0-4.518-3.662-8.18-8.18-8.18H246.135c-4.517,0-8.179,3.662-8.179,8.18
						v95.992h-14.329l0,0c0,7.694,6.238,13.934,13.934,13.934H396.46c7.695,0,13.934-6.239,13.934-13.934l0,0H396.066z"/>
					<path fill="#596275" d="M396.557,360.688v-95.993c0-4.518-3.661-8.179-8.18-8.179h-141.75c-4.518,0-8.179,3.661-8.179,8.179
						v95.993h-14.329l0,0c0,7.694,6.237,13.933,13.934,13.933h158.898c7.695,0,13.934-6.238,13.934-13.933l0,0H396.557z"/>
					<path fill="#596275" d="M397.048,361.18v-95.992c0-4.518-3.661-8.18-8.179-8.18H247.118c-4.518,0-8.179,3.662-8.179,8.18
						v95.992h-14.328l0,0c0,7.694,6.237,13.934,13.933,13.934h158.898c7.695,0,13.934-6.239,13.934-13.934l0,0H397.048
						L397.048,361.18z"/>
					<path fill="#596275" d="M397.54,361.671v-95.992c0-4.518-3.661-8.179-8.18-8.179h-141.75c-4.518,0-8.179,3.661-8.179,8.179
						v95.993h-14.329l0,0c0,7.694,6.237,13.934,13.933,13.934h158.899c7.694,0,13.934-6.239,13.934-13.934l0,0L397.54,361.671
						L397.54,361.671z"/>
					<path fill="#596275" d="M398.031,362.163V266.17c0-4.518-3.661-8.18-8.18-8.18h-141.75c-4.518,0-8.179,3.662-8.179,8.18v95.993
						h-14.329l0,0c0,7.694,6.238,13.934,13.934,13.934h158.898c7.695,0,13.934-6.239,13.934-13.934l0,0H398.031L398.031,362.163z"/>
					<path fill="#596275" d="M398.523,362.654v-95.992c0-4.518-3.661-8.181-8.179-8.181H248.593c-4.517,0-8.178,3.663-8.178,8.181
						v95.992h-14.33l0,0c0,7.694,6.237,13.934,13.934,13.934h158.899c7.694,0,13.934-6.239,13.934-13.934l0,0H398.523z"/>
					<path fill="#596275" d="M399.015,363.146v-95.993c0-4.518-3.661-8.18-8.18-8.18H249.084c-4.517,0-8.179,3.662-8.179,8.18
						v95.993h-14.329l0,0c0,7.694,6.238,13.932,13.934,13.932h158.898c7.696,0,13.935-6.237,13.935-13.932l0,0H399.015z"/>
					<path fill="#596275" d="M399.506,363.637v-95.991c0-4.519-3.661-8.181-8.179-8.181H249.576c-4.518,0-8.179,3.662-8.179,8.181
						v95.991h-14.329l0,0c0,7.695,6.237,13.934,13.933,13.934h158.899c7.695,0,13.934-6.238,13.934-13.934l0,0H399.506
						L399.506,363.637z"/>
					<path fill="#596275" d="M399.997,364.13v-95.993c0-4.518-3.661-8.18-8.18-8.18h-141.75c-4.517,0-8.179,3.662-8.179,8.18v95.993
						H227.56l0,0c0,7.694,6.238,13.934,13.934,13.934h158.898c7.695,0,13.934-6.239,13.934-13.934l0,0H399.997z"/>
					<path fill="#596275" d="M400.49,364.62v-95.992c0-4.518-3.661-8.18-8.18-8.18H250.559c-4.518,0-8.178,3.662-8.178,8.18v95.992
						h-14.33l0,0c0,7.695,6.238,13.934,13.934,13.934h158.898c7.696,0,13.934-6.238,13.934-13.934l0,0H400.49L400.49,364.62z"/>
					<path fill="#596275" d="M400.981,365.113v-95.994c0-4.518-3.661-8.18-8.18-8.18h-141.75c-4.517,0-8.179,3.662-8.179,8.18
						v95.992h-14.329l0,0c0,7.694,6.238,13.933,13.934,13.933h158.898c7.695,0,13.934-6.238,13.934-13.933l0,0h-14.328V365.113z"/>
					<path fill="#596275" d="M401.473,365.604v-95.992c0-4.519-3.662-8.18-8.181-8.18h-141.75c-4.518,0-8.179,3.661-8.179,8.18
						v95.992h-14.33l0,0c0,7.695,6.239,13.934,13.934,13.934h158.899c7.695,0,13.934-6.238,13.934-13.934l0,0H401.473z"/>
					<path fill="#596275" d="M401.963,366.095v-95.992c0-4.518-3.66-8.18-8.179-8.18H252.033c-4.517,0-8.178,3.662-8.178,8.18
						v95.992h-14.33l0,0c0,7.694,6.238,13.934,13.934,13.934h158.898c7.695,0,13.934-6.239,13.934-13.934l0,0H401.963z"/>
					<path fill="#596275" d="M402.455,366.587v-95.993c0-4.518-3.661-8.179-8.18-8.179H252.525c-4.517,0-8.178,3.661-8.178,8.179
						v95.992h-14.33l0,0c0,7.694,6.239,13.934,13.934,13.934H402.85c7.695,0,13.934-6.239,13.934-13.934l0,0L402.455,366.587
						L402.455,366.587z"/>
					<path fill="#596275" d="M402.947,367.078v-95.992c0-4.52-3.661-8.18-8.179-8.18H253.017c-4.517,0-8.179,3.661-8.179,8.18
						v95.992h-14.329l0,0c0,7.694,6.237,13.933,13.934,13.933h158.898c7.695,0,13.934-6.238,13.934-13.933l0,0H402.947
						L402.947,367.078z"/>
					<path fill="#596275" d="M403.439,367.57v-95.993c0-4.518-3.662-8.18-8.18-8.18H253.508c-4.517,0-8.178,3.662-8.178,8.18v95.992
						H231l0,0c0,7.694,6.238,13.934,13.934,13.934h158.899c7.695,0,13.934-6.239,13.934-13.934l0,0L403.439,367.57L403.439,367.57z"
						/>
					<path fill="#596275" d="M403.93,368.062v-95.993c0-4.519-3.661-8.18-8.18-8.18H254c-4.518,0-8.18,3.662-8.18,8.18v95.993
						h-14.329l0,0c0,7.694,6.238,13.933,13.934,13.933h158.899c7.695,0,13.934-6.238,13.934-13.933l0,0H403.93z"/>
					<path fill="#596275" d="M404.42,368.553v-95.992c0-4.518-3.66-8.18-8.179-8.18h-141.75c-4.518,0-8.18,3.662-8.18,8.18v95.992
						h-14.328l0,0c0,7.694,6.238,13.934,13.934,13.934h158.898c7.695,0,13.934-6.239,13.934-13.934l0,0H404.42z"/>
					<path fill="#596275" d="M404.912,369.045v-95.993c0-4.519-3.661-8.18-8.179-8.18h-141.75c-4.518,0-8.18,3.661-8.18,8.18v95.992
						h-14.329l0,0c0,7.694,6.238,13.934,13.934,13.934h158.899c7.694,0,13.934-6.239,13.934-13.934l0,0L404.912,369.045
						L404.912,369.045z"/>
					<path fill="#596275" d="M405.404,369.536v-95.993c0-4.519-3.66-8.18-8.179-8.18h-141.75c-4.518,0-8.18,3.661-8.18,8.18v95.993
						h-14.328l0,0c0,7.694,6.237,13.932,13.934,13.932h158.897c7.695,0,13.935-6.237,13.935-13.932l0,0H405.404L405.404,369.536z"/>
					<path fill="#596275" d="M405.895,370.028v-95.993c0-4.519-3.66-8.181-8.179-8.181h-141.75c-4.518,0-8.18,3.662-8.18,8.181
						v95.993h-14.329l0,0c0,7.693,6.239,13.933,13.935,13.933H406.29c7.695,0,13.934-6.239,13.934-13.933l0,0H405.895z"/>
					<path fill="#596275" d="M406.387,370.52v-95.993c0-4.519-3.66-8.18-8.18-8.18h-141.75c-4.517,0-8.179,3.661-8.179,8.18v95.993
						h-14.329l0,0c0,7.694,6.238,13.932,13.934,13.932h158.898c7.695,0,13.934-6.237,13.934-13.932l0,0H406.387L406.387,370.52z"/>
					<path fill="#596275" d="M406.878,371.01v-95.991c0-4.519-3.66-8.181-8.179-8.181h-141.75c-4.518,0-8.181,3.662-8.181,8.181
						v95.991h-14.328l0,0c0,7.695,6.238,13.934,13.934,13.934h158.899c7.695,0,13.934-6.238,13.934-13.934l0,0H406.878z"/>
					<path fill="#596275" d="M407.369,371.503v-95.994c0-4.518-3.66-8.179-8.179-8.179h-141.75c-4.517,0-8.179,3.661-8.179,8.179
						v95.992h-14.329l0,0c0,7.694,6.238,13.933,13.934,13.933h158.898c7.694,0,13.934-6.238,13.934-13.933l0,0h-14.329V371.503z"/>
					<path fill="#596275" d="M407.861,371.993v-95.992c0-4.519-3.66-8.181-8.178-8.181h-141.75c-4.519,0-8.181,3.662-8.181,8.181
						v95.992h-14.328l0,0c0,7.695,6.238,13.933,13.934,13.933h158.899c7.695,0,13.934-6.237,13.934-13.933l0,0H407.861
						L407.861,371.993z"/>
					<path fill="#596275" d="M408.353,372.484v-95.992c0-4.518-3.66-8.18-8.179-8.18h-141.75c-4.518,0-8.18,3.662-8.18,8.18v95.992
						h-14.329l0,0c0,7.694,6.238,13.934,13.934,13.934h158.899c7.694,0,13.934-6.239,13.934-13.934l0,0H408.353z"/>
					<path fill="#596275" d="M408.844,372.977v-95.992c0-4.519-3.66-8.181-8.179-8.181h-141.75c-4.518,0-8.18,3.662-8.18,8.181
						v95.992h-14.329l0,0c0,7.695,6.239,13.933,13.934,13.933H409.24c7.695,0,13.934-6.237,13.934-13.933l0,0H408.844
						L408.844,372.977z"/>
					<path fill="#596275" d="M409.336,373.468v-95.992c0-4.518-3.661-8.18-8.179-8.18H259.406c-4.517,0-8.179,3.662-8.179,8.18
						v95.992h-14.329l0,0c0,7.694,6.238,13.934,13.934,13.934h158.898c7.695,0,13.934-6.239,13.934-13.934l0,0H409.336z"/>
					<path fill="#596275" d="M409.827,373.959v-95.992c0-4.518-3.661-8.18-8.179-8.18h-141.75c-4.518,0-8.18,3.662-8.18,8.18v95.992
						H237.39l0,0c0,7.695,6.238,13.934,13.934,13.934h158.899c7.694,0,13.933-6.238,13.933-13.934l0,0H409.827z"/>
					<path fill="#596275" d="M410.319,374.451v-95.993c0-4.517-3.66-8.18-8.179-8.18H260.39c-4.518,0-8.18,3.663-8.18,8.18v95.993
						h-14.328l0,0c0,7.694,6.237,13.933,13.933,13.933h158.899c7.695,0,13.934-6.238,13.934-13.933l0,0H410.319z"/>
					<path fill="#596275" d="M410.81,374.942V278.95c0-4.518-3.66-8.18-8.179-8.18h-141.75c-4.517,0-8.179,3.662-8.179,8.18v95.992
						h-14.329l0,0c0,7.694,6.238,13.934,13.934,13.934h158.898c7.695,0,13.934-6.239,13.934-13.934l0,0H410.81z"/>
					<path fill="#596275" d="M411.302,375.435v-95.993c0-4.519-3.661-8.18-8.179-8.18h-141.75c-4.518,0-8.18,3.661-8.18,8.18v95.993
						h-14.329l0,0c0,7.694,6.238,13.933,13.934,13.933h158.899c7.695,0,13.933-6.238,13.933-13.933l0,0H411.302L411.302,375.435z"/>
					<path fill="#596275" d="M411.793,375.926v-95.993c0-4.519-3.66-8.179-8.179-8.179h-141.75c-4.518,0-8.18,3.66-8.18,8.179
						v95.993h-14.328l0,0c0,7.694,6.238,13.932,13.934,13.932h158.897c7.696,0,13.935-6.237,13.935-13.932l0,0H411.793
						L411.793,375.926z"/>
					<path fill="#596275" d="M412.285,376.418v-95.993c0-4.519-3.661-8.181-8.179-8.181H262.356c-4.517,0-8.18,3.662-8.18,8.181
						v95.992h-14.328l0,0c0,7.694,6.238,13.932,13.933,13.932h158.9c7.694,0,13.933-6.237,13.933-13.932l0,0L412.285,376.418
						L412.285,376.418z"/>
					<path fill="#596275" d="M412.776,376.909v-95.993c0-4.519-3.659-8.18-8.178-8.18H262.847c-4.517,0-8.179,3.661-8.179,8.18
						v95.993H240.34l0,0c0,7.694,6.237,13.932,13.933,13.932h158.898c7.695,0,13.934-6.237,13.934-13.932l0,0H412.776z"/>
					<path fill="#596275" d="M413.268,377.4v-95.992c0-4.519-3.66-8.181-8.179-8.181h-141.75c-4.518,0-8.18,3.662-8.18,8.181V377.4
						H240.83l0,0c0,7.694,6.238,13.934,13.934,13.934h158.899c7.695,0,13.933-6.239,13.933-13.934l0,0H413.268z"/>
					<path fill="#596275" d="M413.76,377.893v-95.994c0-4.518-3.66-8.179-8.179-8.179h-141.75c-4.518,0-8.18,3.661-8.18,8.179
						v95.994h-14.329l0,0c0,7.694,6.239,13.932,13.934,13.932h158.899c7.695,0,13.933-6.237,13.933-13.932l0,0H413.76z"/>
					<path fill="#596275" d="M414.252,378.383V282.39c0-4.518-3.661-8.179-8.179-8.179h-141.75c-4.518,0-8.181,3.661-8.181,8.179
						v95.993h-14.329l0,0c0,7.695,6.238,13.933,13.935,13.933h158.898c7.695,0,13.933-6.237,13.933-13.933l0,0H414.252
						L414.252,378.383z"/>
					<path fill="#596275" d="M414.742,378.876v-95.994c0-4.518-3.66-8.18-8.179-8.18h-141.75c-4.517,0-8.179,3.662-8.179,8.18
						v95.994h-14.329l0,0c0,7.692,6.238,13.932,13.934,13.932h158.898c7.695,0,13.934-6.239,13.934-13.932l0,0H414.742z"/>
					<path fill="#596275" d="M415.235,379.366v-95.993c0-4.518-3.66-8.18-8.18-8.18H265.306c-4.518,0-8.18,3.662-8.18,8.18v95.993
						h-14.329l0,0c0,7.695,6.238,13.933,13.934,13.933H415.63c7.695,0,13.933-6.237,13.933-13.933l0,0H415.235z"/>
					<path fill="#596275" d="M415.726,379.857v-95.992c0-4.518-3.66-8.18-8.179-8.18h-141.75c-4.517,0-8.18,3.662-8.18,8.18v95.992
						h-14.328l0,0c0,7.694,6.238,13.934,13.934,13.934h158.898c7.695,0,13.934-6.239,13.934-13.934l0,0H415.726z"/>
					<path fill="#596275" d="M416.218,380.35v-95.993c0-4.518-3.661-8.18-8.18-8.18H266.289c-4.519,0-8.181,3.662-8.181,8.18v95.993
						h-14.328l0,0c0,7.693,6.238,13.933,13.933,13.933h158.899c7.695,0,13.933-6.239,13.933-13.933l0,0H416.218z"/>
					<path fill="#596275" d="M416.709,380.841v-95.993c0-4.517-3.66-8.18-8.18-8.18H266.78c-4.518,0-8.179,3.663-8.179,8.18v95.993
						h-14.33l0,0c0,7.693,6.238,13.933,13.934,13.933h158.899c7.696,0,13.934-6.239,13.934-13.933l0,0H416.709L416.709,380.841z"/>
					<path fill="#596275" d="M417.2,381.332V285.34c0-4.518-3.66-8.18-8.179-8.18H267.271c-4.518,0-8.179,3.662-8.179,8.18v95.992
						h-14.329l0,0c0,7.694,6.238,13.934,13.933,13.934h158.899c7.695,0,13.934-6.239,13.934-13.934l0,0H417.2z"/>
					<path fill="#596275" d="M417.692,381.824v-95.993c0-4.519-3.659-8.18-8.179-8.18h-141.75c-4.518,0-8.179,3.661-8.179,8.18
						v95.993h-14.329l0,0c0,7.693,6.237,13.933,13.933,13.933h158.899c7.695,0,13.934-6.239,13.934-13.933l0,0H417.692z"/>
					<path fill="#596275" d="M418.184,382.315v-95.992c0-4.52-3.66-8.18-8.18-8.18H268.255c-4.518,0-8.18,3.66-8.18,8.18v95.992
						h-14.329l0,0c0,7.694,6.238,13.934,13.934,13.934h158.899c7.695,0,13.933-6.239,13.933-13.934l0,0H418.184z"/>
					<path fill="#596275" d="M418.675,382.807v-95.992c0-4.519-3.659-8.18-8.18-8.18H268.746c-4.519,0-8.18,3.661-8.18,8.18v95.993
						h-14.328l0,0c0,7.694,6.238,13.933,13.932,13.933h158.9c7.695,0,13.933-6.238,13.933-13.933l0,0L418.675,382.807
						L418.675,382.807z"/>
					<path fill="#596275" d="M419.166,383.299v-95.992c0-4.518-3.66-8.18-8.178-8.18H269.237c-4.518,0-8.179,3.662-8.179,8.18
						v95.992h-14.329l0,0c0,7.694,6.237,13.932,13.934,13.932h158.898c7.695,0,13.934-6.237,13.934-13.932l0,0H419.166z"/>
					<path fill="#596275" d="M419.658,383.79v-95.992c0-4.519-3.66-8.18-8.18-8.18h-141.75c-4.518,0-8.179,3.661-8.179,8.18v95.993
						h-14.329l0,0c0,7.693,6.238,13.933,13.933,13.933h158.9c7.694,0,13.933-6.239,13.933-13.933l0,0L419.658,383.79L419.658,383.79
						z"/>
					<path fill="#596275" d="M420.15,384.28v-95.99c0-4.519-3.66-8.181-8.179-8.181h-141.75c-4.518,0-8.18,3.662-8.18,8.181v95.992
						h-14.328l0,0c0,7.694,6.237,13.934,13.933,13.934h158.899c7.695,0,13.933-6.239,13.933-13.934l0,0H420.15V384.28z"/>
					<path fill="#596275" d="M420.642,384.773v-95.992c0-4.519-3.66-8.181-8.181-8.181H270.712c-4.519,0-8.181,3.662-8.181,8.181
						v95.992h-14.328l0,0c0,7.694,6.238,13.934,13.934,13.934h158.898c7.695,0,13.934-6.239,13.934-13.934l0,0H420.642
						L420.642,384.773z"/>
					<path fill="#596275" d="M421.133,385.264v-95.992c0-4.518-3.66-8.18-8.18-8.18H271.202c-4.517,0-8.179,3.662-8.179,8.18v95.992
						h-14.329l0,0c0,7.694,6.238,13.934,13.933,13.934h158.9c7.695,0,13.934-6.239,13.934-13.934l0,0H421.133z"/>
					<path fill="#596275" d="M421.624,385.755v-95.99c0-4.519-3.66-8.181-8.18-8.181H271.694c-4.517,0-8.179,3.662-8.179,8.181
						v95.991h-14.328l0,0c0,7.695,6.237,13.934,13.933,13.934h158.899c7.695,0,13.933-6.238,13.933-13.934l0,0L421.624,385.755
						L421.624,385.755z"/>
					<path fill="#596275" d="M422.115,386.247v-95.992c0-4.518-3.66-8.18-8.179-8.18h-141.75c-4.518,0-8.179,3.662-8.179,8.18
						v95.992h-14.329l0,0c0,7.694,6.237,13.934,13.933,13.934h158.899c7.695,0,13.934-6.239,13.934-13.934l0,0H422.115
						L422.115,386.247z"/>
					<path fill="#596275" d="M422.608,386.738v-95.992c0-4.517-3.66-8.179-8.18-8.179h-141.75c-4.518,0-8.179,3.662-8.179,8.179
						v95.992H250.17l0,0c0,7.694,6.238,13.934,13.934,13.934h158.899c7.695,0,13.932-6.239,13.932-13.934l0,0H422.608
						L422.608,386.738z"/>
					<path fill="#596275" d="M423.099,387.229v-95.991c0-4.518-3.66-8.18-8.179-8.18H273.17c-4.518,0-8.179,3.662-8.179,8.18v95.992
						h-14.329l0,0c0,7.694,6.236,13.934,13.933,13.934h158.899c7.694,0,13.934-6.239,13.934-13.934l0,0L423.099,387.229
						L423.099,387.229z"/>
					<path fill="#596275" d="M423.591,387.722v-95.992c0-4.518-3.661-8.18-8.181-8.18H273.66c-4.517,0-8.179,3.662-8.179,8.18
						v95.992h-14.329l0,0c0,7.694,6.238,13.934,13.934,13.934h158.899c7.695,0,13.933-6.239,13.933-13.934l0,0H423.591
						L423.591,387.722z"/>
					<path fill="#596275" d="M424.082,388.213v-95.991c0-4.519-3.66-8.18-8.18-8.18h-141.75c-4.518,0-8.179,3.662-8.179,8.18v95.992
						h-14.329l0,0c0,7.694,6.237,13.934,13.933,13.934h158.899c7.695,0,13.934-6.239,13.934-13.934l0,0L424.082,388.213
						L424.082,388.213z"/>
					<path fill="#596275" d="M424.573,388.705v-95.992c0-4.518-3.661-8.18-8.18-8.18h-141.75c-4.517,0-8.179,3.662-8.179,8.18
						v95.992h-14.329l0,0c0,7.694,6.238,13.934,13.934,13.934h158.899c7.695,0,13.933-6.239,13.933-13.934l0,0H424.573
						L424.573,388.705z"/>
					<path fill="#596275" d="M425.065,389.196v-95.992c0-4.519-3.661-8.179-8.179-8.179h-141.75c-4.518,0-8.18,3.66-8.18,8.179
						v95.992h-14.328l0,0c0,7.694,6.237,13.934,13.933,13.934H425.46c7.695,0,13.934-6.239,13.934-13.934l0,0H425.065
						L425.065,389.196z"/>
					<path fill="#596275" d="M425.556,389.687v-95.99c0-4.519-3.66-8.18-8.179-8.18h-141.75c-4.518,0-8.179,3.661-8.179,8.18v95.99
						h-14.329l0,0c0,7.696,6.237,13.935,13.933,13.935h158.899c7.696,0,13.934-6.238,13.934-13.935l0,0H425.556z"/>
					<path fill="#596275" d="M426.048,390.18v-95.992c0-4.519-3.661-8.181-8.18-8.181H276.117c-4.517,0-8.179,3.662-8.179,8.181
						v95.992H253.61l0,0c0,7.694,6.238,13.934,13.934,13.934h158.899c7.694,0,13.933-6.239,13.933-13.934l0,0H426.048
						L426.048,390.18z"/>
					<path fill="#596275" d="M426.539,390.67v-95.99c0-4.519-3.66-8.18-8.179-8.18H276.61c-4.517,0-8.179,3.661-8.179,8.18v95.992
						h-14.328l0,0c0,7.693,6.237,13.934,13.933,13.934h158.899c7.694,0,13.933-6.24,13.933-13.934l0,0h-14.328V390.67z"/>
					<path fill="#596275" d="M427.031,391.163v-95.992c0-4.519-3.661-8.181-8.18-8.181h-141.75c-4.517,0-8.179,3.662-8.179,8.181
						v95.992h-14.329l0,0c0,7.694,6.238,13.934,13.934,13.934h158.899c7.694,0,13.933-6.239,13.933-13.934l0,0H427.031
						L427.031,391.163z"/>
					<path fill="#596275" d="M427.523,391.653v-95.991c0-4.519-3.661-8.18-8.179-8.18H277.592c-4.518,0-8.178,3.661-8.178,8.18
						v95.991h-14.33l0,0c0,7.694,6.238,13.934,13.934,13.934h158.899c7.694,0,13.933-6.239,13.933-13.934l0,0H427.523
						L427.523,391.653z"/>
					<path fill="#596275" d="M428.014,392.145v-95.99c0-4.519-3.661-8.181-8.179-8.181H278.084c-4.518,0-8.18,3.662-8.18,8.181
						v95.992h-14.328l0,0c0,7.694,6.237,13.934,13.933,13.934h158.898c7.695,0,13.935-6.239,13.935-13.934l0,0h-14.328V392.145z"/>
					<path fill="#596275" d="M428.505,392.637v-95.992c0-4.518-3.66-8.18-8.179-8.18h-141.75c-4.518,0-8.179,3.662-8.179,8.18
						v95.992h-14.329l0,0c0,7.694,6.237,13.934,13.933,13.934h158.899c7.694,0,13.934-6.239,13.934-13.934l0,0H428.505
						L428.505,392.637z"/>
					<path fill="#596275" d="M428.997,393.128v-95.99c0-4.519-3.661-8.181-8.18-8.181h-141.75c-4.518,0-8.179,3.662-8.179,8.181
						v95.991H256.56l0,0c0,7.695,6.238,13.934,13.934,13.934h158.897c7.696,0,13.935-6.238,13.935-13.934l0,0L428.997,393.128
						L428.997,393.128z"/>
					<path fill="#596275" d="M429.489,393.619v-95.991c0-4.518-3.66-8.18-8.179-8.18H279.56c-4.519,0-8.18,3.662-8.18,8.18v95.992
						h-14.329l0,0c0,7.694,6.238,13.934,13.933,13.934h158.899c7.695,0,13.935-6.239,13.935-13.934l0,0L429.489,393.619
						L429.489,393.619z"/>
					<path fill="#596275" d="M429.98,394.111v-95.992c0-4.518-3.66-8.18-8.18-8.18H280.05c-4.517,0-8.179,3.662-8.179,8.18v95.992
						h-14.329l0,0c0,7.694,6.238,13.934,13.933,13.934h158.899c7.695,0,13.934-6.239,13.934-13.934l0,0H429.98z"/>
					<path fill="#596275" d="M430.472,394.603v-95.991c0-4.519-3.661-8.18-8.18-8.18h-141.75c-4.518,0-8.179,3.661-8.179,8.18
						v95.992h-14.329l0,0c0,7.694,6.237,13.934,13.933,13.934h158.899c7.695,0,13.934-6.239,13.934-13.934l0,0L430.472,394.603
						L430.472,394.603z"/>
					<path fill="#596275" d="M430.963,395.095v-95.992c0-4.518-3.66-8.18-8.18-8.18h-141.75c-4.518,0-8.179,3.662-8.179,8.18v95.992
						h-14.329l0,0c0,7.694,6.238,13.934,13.934,13.934h158.898c7.695,0,13.934-6.239,13.934-13.934l0,0H430.963L430.963,395.095z"/>
					<path fill="#596275" d="M431.455,395.586v-95.991c0-4.519-3.661-8.181-8.18-8.181h-141.75c-4.518,0-8.18,3.662-8.18,8.181
						v95.992h-14.328l0,0c0,7.694,6.237,13.933,13.933,13.933H431.85c7.695,0,13.934-6.238,13.934-13.933l0,0L431.455,395.586
						L431.455,395.586z"/>
					<path fill="#596275" d="M431.946,396.078v-95.992c0-4.519-3.66-8.18-8.179-8.18h-141.75c-4.517,0-8.18,3.661-8.18,8.18v95.992
						h-14.328l0,0c0,7.694,6.238,13.934,13.934,13.934H432.34c7.696,0,13.935-6.239,13.935-13.934l0,0H431.946L431.946,396.078z"/>
					<path fill="#596275" d="M432.438,396.569v-95.992c0-4.519-3.661-8.181-8.18-8.181h-141.75c-4.518,0-8.179,3.662-8.179,8.181
						v95.992H260l0,0c0,7.694,6.238,13.934,13.934,13.934h158.898c7.695,0,13.934-6.239,13.934-13.934l0,0H432.438L432.438,396.569z
						"/>
					<path fill="#596275" d="M432.929,397.06v-95.991c0-4.518-3.66-8.179-8.179-8.179H283c-4.518,0-8.18,3.661-8.18,8.179v95.993
						h-14.328l0,0c0,7.694,6.237,13.934,13.933,13.934h158.898c7.695,0,13.935-6.239,13.935-13.934l0,0h-14.329V397.06z"/>
				</g>
				<g>
					<rect x="67.902" y="65.967" fill="none" width="224.936" height="224.937"/>
				</g>
				<g>
					<path fill="#F2F2F2" d="M259.82,237.489H100.921c-7.695,0-13.934-6.237-13.934-13.934l0,0h186.766l0,0
						C273.753,231.252,267.515,237.489,259.82,237.489z"/>
					<path fill="#B8C7CC" d="M207.05,230.522h-53.361c-3.848,0-6.966-3.118-6.966-6.965l0,0h67.294l0,0
						C214.017,227.404,210.898,230.522,207.05,230.522z"/>
					<path fill="#596275" d="M251.246,119.383H109.494c-4.517,0-8.18,3.662-8.18,8.179v95.994h158.111v-95.993
						C259.425,123.045,255.763,119.383,251.246,119.383z"/>
					<path fill="#FBB03B" d="M246.033,214.79H114.706c-2.259,0-4.089-1.83-4.089-4.09v-78.461c0-2.259,1.83-4.089,4.089-4.089
						h131.327c2.26,0,4.09,1.831,4.09,4.089V210.7C250.123,212.96,248.293,214.79,246.033,214.79z"/>
					<path fill="#F7931E" d="M246.033,214.79H180.37v-86.642h65.664c2.26,0,4.09,1.831,4.09,4.09v78.461
						C250.123,212.96,248.293,214.79,246.033,214.79z"/>
					<circle fill="#E65C43" cx="180.37" cy="171.469" r="24.538"/>
					<path fill="#F2F2F2" d="M176.132,159.18l16.127,9.312c2.293,1.324,2.293,4.633,0,5.958l-16.127,9.312
						c-2.293,1.323-5.16-0.332-5.16-2.979v-18.622C170.972,159.511,173.839,157.855,176.132,159.18z"/>
				</g>
			</g>
		</g>
	</g>
</g>
</svg>
